# Blender v2.93.4 OBJ File: 'Fondo.blend'
# www.blender.org
mtllib Fondo-B.mtl
o Fondo-B_Plane.018
v 0.651921 0.000000 1.000000
v -0.109896 0.000000 0.695038
v 0.651921 0.070625 1.000000
v -0.109896 0.000000 1.000000
v -0.109896 0.070625 0.695038
v 0.651921 0.000000 0.695038
v -0.109896 0.070625 1.000000
v 0.651921 0.070625 0.695038
v 0.651921 0.000000 0.218606
v 1.000000 0.000000 0.067135
v 1.000000 0.000000 0.218606
v 0.651921 0.000000 0.067135
v 1.000000 0.036035 0.218606
v 1.000000 0.036035 0.067135
v 0.651921 0.036035 0.218606
v 0.651921 0.036035 0.067135
v 0.096709 0.000000 -0.337599
v 0.447080 0.000000 -0.337599
v 0.096709 0.000000 0.183625
v 0.447080 0.000000 0.183625
v 0.096709 0.050441 -0.337599
v 0.447080 0.050441 -0.337599
v 0.119528 0.067879 0.158330
v 0.447080 0.050441 0.183625
v 0.096709 0.050441 0.016687
v 0.338718 0.050441 0.183625
v 0.096709 0.032504 0.183625
v 0.447080 0.000000 0.695038
v 0.651921 0.000000 -0.337599
v 0.651921 0.000000 0.695038
v 0.447080 0.000000 -0.337599
v 0.447080 0.036035 0.695038
v 0.651921 0.062991 -0.318664
v 0.651921 0.036035 0.695038
v 0.469000 0.043738 -0.322222
v 0.447080 0.036035 0.385343
v 0.651921 0.036035 0.178719
v 0.651921 -0.002438 -0.337599
v 0.447080 0.031423 -0.337599
v 0.651921 0.000000 0.067135
v 0.651921 0.024024 0.067135
v 1.000000 0.000000 -0.260110
v 1.000000 0.000000 0.067135
v 0.651921 0.000000 -0.260110
v 1.000000 0.024024 -0.260110
v 1.000000 0.024024 0.067135
v 0.651921 0.024024 -0.260110
v 1.000000 0.000000 1.000000
v 1.000000 0.024024 1.000000
v 1.000000 0.000000 0.218606
v 0.651921 0.000000 1.000000
v 0.651921 0.000000 0.218606
v 1.000000 0.024024 0.218606
v 0.651921 0.024024 1.000000
v 0.651921 0.024024 0.218606
v 0.148696 0.011353 0.288876
v 0.053326 0.011353 0.214865
v -0.048875 0.011353 0.127156
v 0.096709 0.000000 -0.096488
v -0.109896 0.000000 -0.096488
v 0.447080 0.000000 0.183625
v 0.447080 0.000000 0.695038
v -0.109896 0.000000 0.695038
v 0.096709 0.000000 0.183625
v 0.096709 0.024024 -0.096488
v -0.109896 0.024024 -0.096488
v 0.447080 0.024024 0.183625
v 0.447080 0.024024 0.695038
v -0.109896 0.024024 0.695038
v 0.096709 0.024024 0.183625
v 0.164937 0.024024 0.294689
v 0.150780 0.024024 0.282044
v -0.109896 0.011353 0.069317
v -0.109896 0.024024 0.059476
v -0.043962 0.024024 0.121972
v 0.058118 0.024024 0.209817
v 0.048504 0.024024 0.219949
v 0.146612 0.024024 0.295707
v -0.109896 0.024024 0.079158
v -0.053789 0.024024 0.132340
v -0.637257 0.023959 0.432319
v -0.299549 0.023959 0.266554
v -0.405159 0.023959 0.325029
v -0.109896 0.000000 1.000000
v -1.000000 0.000000 1.000000
v -0.109896 0.000000 0.067135
v -0.109896 0.050441 1.000000
v -1.000000 0.000000 0.414921
v -0.436667 -0.000000 0.414921
v -0.436667 0.000000 0.067135
v -1.000000 0.050441 1.000000
v -0.109896 0.050441 0.067135
v -1.000000 0.050441 0.414921
v -0.436667 0.050441 0.414921
v -0.436667 0.050441 0.067135
v -0.275005 0.050441 0.240148
v -0.288144 0.050441 0.276185
v -0.310953 0.050441 0.256923
v -0.399369 0.050441 0.338479
v -0.410908 0.050441 0.311668
v -0.436667 0.050441 0.356791
v -0.436667 0.023959 0.340498
v -0.436667 0.050441 0.323945
v -0.596897 0.023959 0.414921
v -0.559189 0.050441 0.414921
v -0.631348 0.050441 0.446026
v -0.634605 0.050441 0.414921
v -0.643166 0.050441 0.418611
v -0.676149 0.050441 0.446901
v -0.436667 -0.000000 0.414921
v -1.000000 0.000000 0.414921
v -0.436667 0.000000 0.067135
v -1.000000 0.000000 0.067135
v -0.436667 0.014327 0.414921
v -1.000000 0.014327 0.414921
v -0.436667 0.014327 0.067135
v -1.000000 0.014327 0.067135
v -0.109896 0.070625 1.000000
v -0.109896 0.070625 0.695038
v 0.651921 0.070625 1.000000
v 0.651921 0.070625 0.695038
v 0.651921 0.036035 0.218606
v 0.651921 0.036035 0.067135
v 1.000000 0.036035 0.067135
v 1.000000 0.036035 0.218606
v 0.096709 0.050441 0.016687
v 0.096709 0.050441 -0.337599
v 0.447080 0.050441 -0.337599
v 0.447080 0.050441 0.183625
v 0.338718 0.050441 0.183625
v 0.119528 0.067879 0.158330
v 0.651921 0.062991 -0.318664
v 0.469000 0.043738 -0.322222
v 0.469000 0.043738 -0.322222
v 0.447080 0.036035 0.385343
v 0.447080 0.036035 0.695038
v 0.651921 0.036035 0.178719
v 0.651921 0.036035 0.695038
v 0.447080 0.031423 -0.337599
v 0.447080 0.000000 -0.337599
v 1.000000 0.024024 -0.260110
v 1.000000 0.024024 0.067135
v 0.651921 0.024024 0.067135
v 0.651921 0.024024 -0.260110
v 1.000000 0.024024 1.000000
v 0.651921 0.024024 1.000000
v 1.000000 0.024024 0.218606
v 0.651921 0.024024 0.218606
v 0.053326 0.011353 0.214865
v -0.048875 0.011353 0.127156
v 0.447080 0.024024 0.695038
v -0.109896 0.024024 0.695038
v 0.447080 0.024024 0.183625
v 0.096709 0.024024 -0.096488
v -0.109896 0.024024 -0.096488
v 0.096709 0.024024 0.183625
v 0.164937 0.024024 0.294689
v 0.150780 0.024024 0.282044
v -0.043962 0.024024 0.121972
v -0.109896 0.024024 0.059476
v 0.058118 0.024024 0.209817
v 0.048504 0.024024 0.219949
v 0.146612 0.024024 0.295707
v -0.109896 0.024024 0.079158
v -0.053789 0.024024 0.132340
v -0.405159 0.023959 0.325029
v -0.634605 0.050441 0.414921
v -0.634605 0.050441 0.414921
v -1.000000 0.050441 0.414921
v -0.436667 0.050441 0.356791
v -0.436667 0.050441 0.356791
v -0.436667 0.050441 0.414921
v -1.000000 0.050441 1.000000
v -0.109896 0.050441 1.000000
v -0.109896 0.050441 0.067135
v -0.436667 0.050441 0.067135
v -0.275005 0.050441 0.240148
v -0.288144 0.050441 0.276185
v -0.310953 0.050441 0.256923
v -0.399369 0.050441 0.338479
v -0.410908 0.050441 0.311668
v -0.436667 0.023959 0.340498
v -0.436667 0.023959 0.340498
v -0.436667 0.050441 0.323945
v -0.436667 0.050441 0.323945
v -0.596897 0.023959 0.414921
v -0.596897 0.023959 0.414921
v -0.559189 0.050441 0.414921
v -0.559189 0.050441 0.414921
v -0.631348 0.050441 0.446026
v -0.643166 0.050441 0.418611
v -0.676149 0.050441 0.446901
v -0.436667 0.014327 0.067135
v -0.436667 0.014327 0.414921
v -1.000000 0.014327 0.414921
v -1.000000 0.014327 0.067135
vt 0.107809 0.316741
vt 0.107809 0.519352
vt 0.026702 0.519352
vt 0.026702 0.316741
vt 0.338158 0.836362
vt 0.338158 0.855145
vt 0.257051 0.855145
vt 0.257051 0.836362
vt 0.673556 0.493229
vt 0.654773 0.493229
vt 0.654773 0.290618
vt 0.673556 0.290618
vt 0.853571 0.436517
vt 0.872354 0.436517
vt 0.872354 0.517624
vt 0.853571 0.517624
vt 0.473472 0.764175
vt 0.473472 0.782958
vt 0.270860 0.782958
vt 0.270860 0.764175
vt 0.526875 0.957584
vt 0.526875 0.948000
vt 0.567160 0.948000
vt 0.567160 0.957584
vt 0.107919 0.955947
vt 0.107919 0.965531
vt 0.067634 0.965531
vt 0.067634 0.955947
vt 0.759760 0.881182
vt 0.759760 0.890765
vt 0.667186 0.890765
vt 0.667186 0.881182
vt 0.898002 0.119276
vt 0.888418 0.119276
vt 0.888418 0.026702
vt 0.898002 0.026702
vt 0.768197 0.026702
vt 0.768197 0.066987
vt 0.675622 0.066987
vt 0.675622 0.026702
vt 0.254396 0.410966
vt 0.248547 0.448956
vt 0.190032 0.455364
vt 0.800168 0.632468
vt 0.786752 0.632468
vt 0.786752 0.493844
vt 0.800168 0.493844
vt 0.821600 0.026702
vt 0.835015 0.026702
vt 0.835015 0.119886
vt 0.821600 0.119886
vt 0.038018 0.711379
vt 0.026702 0.704857
vt 0.033248 0.666980
vt 0.816861 0.761721
vt 0.809980 0.703259
vt 0.821632 0.697357
vt 0.161212 0.316741
vt 0.254396 0.316741
vt 0.161212 0.455364
vt 0.830277 0.790541
vt 0.816861 0.790541
vt 0.830277 0.697357
vt 0.046663 0.711379
vt 0.033248 0.572755
vt 0.046663 0.572755
vt 0.528513 0.427989
vt 0.474086 0.372983
vt 0.474166 0.290618
vt 0.528645 0.290670
vt 0.667186 0.954345
vt 0.673157 0.949325
vt 0.721574 0.944169
vt 0.721574 0.962197
vt 0.547567 0.697739
vt 0.547567 0.707322
vt 0.465201 0.707322
vt 0.276949 0.710772
vt 0.270860 0.705836
vt 0.272929 0.697739
vt 0.601370 0.560105
vt 0.599023 0.560403
vt 0.582048 0.555080
vt 0.591966 0.425361
vt 0.591966 0.290618
vt 0.601370 0.290618
vt 0.853571 0.640404
vt 0.853571 0.630820
vt 0.908050 0.630820
vt 0.908050 0.640404
vt 0.528645 0.560467
vt 0.479723 0.561183
vt 0.667356 0.962660
vt 0.721570 0.963143
vt 0.529644 0.026702
vt 0.622219 0.026702
vt 0.622219 0.113735
vt 0.529644 0.113735
vt 0.912352 0.174164
vt 0.912352 0.180553
vt 0.819778 0.180553
vt 0.819778 0.174164
vt 0.251125 0.914937
vt 0.251125 0.908548
vt 0.338158 0.908548
vt 0.338158 0.914937
vt 0.397951 0.928936
vt 0.391561 0.928936
vt 0.391561 0.836362
vt 0.397951 0.836362
vt 0.940604 0.571028
vt 0.940604 0.577417
vt 0.853571 0.577417
vt 0.853571 0.571028
vt 0.420683 0.290618
vt 0.420683 0.498436
vt 0.328109 0.498436
vt 0.328109 0.290618
vt 0.905738 0.881182
vt 0.905738 0.887571
vt 0.813163 0.887571
vt 0.813163 0.881182
vt 0.726960 0.290618
vt 0.733349 0.290618
vt 0.733349 0.498433
vt 0.726959 0.498433
vt 0.926779 0.383114
vt 0.920389 0.383114
vt 0.920389 0.290540
vt 0.926779 0.290540
vt 0.526875 0.770565
vt 0.526875 0.764175
vt 0.734690 0.764175
vt 0.734690 0.770565
vt 0.892183 0.702310
vt 0.888584 0.702721
vt 0.889484 0.697357
vt 0.892183 0.793405
vt 0.888163 0.791639
vt 0.887661 0.768636
vt 0.891639 0.768548
vt 0.891706 0.731716
vt 0.887937 0.731805
vt 0.885314 0.700962
vt 0.887937 0.731805
vt 0.883804 0.731839
vt 0.883680 0.768722
vt 0.887661 0.768636
vt 0.884143 0.789874
vt 0.476241 0.073416
vt 0.476241 0.237214
vt 0.328109 0.237214
vt 0.328109 0.101200
vt 0.421293 0.101200
vt 0.421293 0.026702
vt 0.476241 0.026702
vt 0.476241 0.068181
vt 0.458705 0.084803
vt 0.431556 0.108166
vt 0.406912 0.127375
vt 0.403147 0.130738
vt 0.408021 0.131009
vt 0.434113 0.110860
vt 0.461319 0.087560
vt 0.203648 0.842751
vt 0.067634 0.842751
vt 0.067634 0.836362
vt 0.203648 0.836362
vt 0.100066 0.720887
vt 0.100066 0.572755
vt 0.106455 0.572755
vt 0.106455 0.720887
vt 0.951405 0.081650
vt 0.951405 0.026702
vt 0.957794 0.026702
vt 0.957794 0.081650
vt 0.167602 0.677800
vt 0.167602 0.719281
vt 0.161212 0.719281
vt 0.161212 0.508768
vt 0.167602 0.508768
vt 0.167601 0.672565
vt 0.164231 0.675182
vt 0.932147 0.511016
vt 0.925757 0.511016
vt 0.925757 0.436517
vt 0.932147 0.436517
vt 0.160818 0.902544
vt 0.067634 0.902544
vt 0.067634 0.896154
vt 0.160818 0.896154
vt 0.955103 0.708732
vt 0.957245 0.697357
vt 0.962848 0.707990
vt 0.962714 0.738080
vt 0.954508 0.738284
vt 0.954508 0.738284
vt 0.945587 0.738256
vt 0.948287 0.704867
vt 0.966068 0.951295
vt 0.973298 0.954199
vt 0.962374 0.972903
vt 0.959952 0.960434
vt 0.954362 0.748183
vt 0.945612 0.750280
vt 0.026702 0.176464
vt 0.094975 0.176464
vt 0.091711 0.183313
vt 0.077157 0.209886
vt 0.072698 0.219443
vt 0.082278 0.215950
vt 0.098839 0.186381
vt 0.103707 0.176465
vt 0.119161 0.176465
vt 0.119161 0.143892
vt 0.127431 0.124708
vt 0.127663 0.112798
vt 0.120142 0.121567
vt 0.118430 0.125459
vt 0.119161 0.026702
vt 0.274706 0.026702
vt 0.274706 0.263337
vt 0.026702 0.263337
vt 0.722191 0.614587
vt 0.722191 0.628002
vt 0.474086 0.628002
vt 0.474086 0.614587
vt 0.756577 0.697357
vt 0.756577 0.710772
vt 0.600971 0.710772
vt 0.600971 0.697357
vt 0.529644 0.180553
vt 0.529644 0.167138
vt 0.766374 0.167138
vt 0.766374 0.180553
vt 0.613782 0.881182
vt 0.613782 0.894597
vt 0.526875 0.894597
vt 0.526875 0.881182
vt 0.866986 0.383114
vt 0.853571 0.383114
vt 0.853571 0.367654
vt 0.860614 0.363321
vt 0.853571 0.358918
vt 0.853571 0.290618
vt 0.866986 0.290618
vt 0.786752 0.290618
vt 0.800168 0.290618
vt 0.800168 0.387797
vt 0.793125 0.397826
vt 0.800168 0.407855
vt 0.800168 0.440441
vt 0.786752 0.440441
vt 0.961221 0.945330
vt 0.959952 0.960434
vt 0.959063 0.947224
vt 0.973298 0.940974
vt 0.954362 0.748183
vt 0.962848 0.746061
vt 0.270860 0.551839
vt 0.420683 0.551839
vt 0.420683 0.644335
vt 0.270860 0.644335
vt 0.217457 0.779148
vt 0.217457 0.782958
vt 0.067634 0.782958
vt 0.067634 0.779148
vt 0.813163 0.944785
vt 0.813163 0.940974
vt 0.905659 0.940974
vt 0.905659 0.944785
vt 0.676699 0.823968
vt 0.676699 0.827778
vt 0.526875 0.827778
vt 0.526875 0.823968
vt 0.451354 0.836362
vt 0.455164 0.836362
vt 0.455164 0.928858
vt 0.451354 0.928858
vn 0.0000 1.0000 0.0000
vn -0.7071 0.0000 0.7071
vn -0.7071 0.0000 -0.7071
vn 0.7071 0.0000 0.7071
vn 0.7071 0.0000 -0.7071
vn 0.0257 0.9990 -0.0373
vn 0.0942 0.9861 -0.1366
vn 0.0154 0.9996 -0.0223
vn -0.6683 0.3095 0.6764
vn -0.5104 0.6931 0.5090
vn -0.9988 0.0487 0.0052
vn -0.0026 0.0356 0.9994
vn -0.0262 0.9994 0.0211
vn -0.0084 0.9999 0.0068
vn 0.0089 0.1521 -0.9883
vn 0.0234 0.3981 -0.9170
vn 0.7812 0.2486 -0.5726
vn 0.1133 0.2025 -0.9727
vn -0.6940 0.1376 0.7067
vn -0.9809 0.1945 -0.0012
vn 1.0000 0.0000 0.0000
vn -0.0349 0.9990 0.0281
vn 0.0000 0.0000 -1.0000
vn -0.5640 0.4654 0.6820
vn -0.1926 0.9659 -0.1729
vn -0.5584 0.8059 -0.1967
vn -0.9546 0.1827 0.2353
vn -0.7474 0.6257 0.2234
vn -0.5847 0.4885 0.6476
vn -0.5845 0.4885 0.6478
vn -0.5551 0.4793 0.6798
vn -0.5558 0.4796 0.6790
vn 0.2570 0.4951 -0.8300
vn 0.5535 0.4806 -0.6802
vn 0.5542 0.4808 -0.6794
vn 0.5841 0.4892 -0.6477
vn 0.5839 0.4891 -0.6479
vn -0.5393 0.5165 -0.6651
vn -0.2359 0.9656 0.1095
vn -0.4009 0.8059 0.4356
vn 0.4040 0.4654 0.7875
vn 0.4037 0.4792 0.7793
vn 0.4027 0.4795 0.7797
vn -0.4077 0.4789 -0.7775
vn -0.4067 0.4791 -0.7779
vn -0.6618 0.4950 -0.5630
vn 0.2232 0.9693 -0.1028
vn -0.1942 0.4848 -0.8528
vn -0.3448 0.4910 -0.8000
vn -0.3858 0.4834 -0.7858
vn -1.0000 0.0000 0.0000
vn 0.4575 0.4871 0.7439
vn 0.3448 0.4910 0.8000
vn 0.5026 0.8432 -0.1907
vn 0.3811 0.4857 0.7866
usemtl Fondo-Mat-B
s 1
f 118/1/1 120/2/1 121/3/1 119/4/1
f 4/5/2 7/6/2 5/7/3 2/8/3
f 1/9/4 3/10/4 7/11/2 4/12/2
f 6/13/5 8/14/5 3/15/4 1/16/4
f 2/17/3 5/18/3 8/19/5 6/20/5
f 10/21/5 124/22/5 125/23/4 11/24/4
f 9/25/2 122/26/2 123/27/3 12/28/3
f 12/29/3 123/30/3 124/31/5 10/32/5
f 11/33/4 125/34/4 122/35/2 9/36/2
f 16/37/1 15/38/1 13/39/1 14/40/1
f 126/41/6 131/42/7 130/43/8
f 18/44/5 128/45/5 129/46/4 20/47/4
f 17/48/3 21/49/3 128/50/5 18/51/5
f 27/52/9 23/53/10 25/54/11
f 26/55/12 23/56/10 27/57/9
f 22/58/1 127/59/1 126/41/6 130/43/8 24/60/1
f 20/61/4 129/62/4 26/55/12 27/57/9 19/63/2
f 19/64/2 27/52/9 25/54/11 21/65/3 17/66/3
f 37/67/13 135/68/14 136/69/1 138/70/1
f 39/71/15 133/72/16 132/73/17 38/74/18
f 28/75/19 32/76/19 36/77/20 134/78/20 139/79/20 31/80/20
f 29/81/5 38/82/18 132/83/17 137/84/21 34/85/4 30/86/4
f 30/87/4 34/88/4 32/89/19 28/90/19
f 33/91/22 35/92/22 135/68/14 37/67/13
f 140/93/23 39/71/15 38/74/18 29/94/5
f 141/95/1 144/96/1 143/97/1 142/98/1
f 44/99/3 47/100/3 45/101/5 42/102/5
f 42/103/5 45/104/5 46/105/4 43/106/4
f 43/107/4 46/108/4 41/109/2 40/110/2
f 40/111/2 41/112/2 47/113/3 44/114/3
f 148/115/1 146/116/1 145/117/1 147/118/1
f 52/119/3 55/120/3 53/121/5 50/122/5
f 50/123/5 53/124/5 49/125/4 48/126/4
f 48/127/4 49/128/4 54/129/2 51/130/2
f 51/131/2 54/132/2 55/133/3 52/134/3
f 158/135/24 56/136/25 157/137/26
f 160/138/27 73/139/28 150/140/29 159/141/30
f 161/142/31 149/143/32 56/136/25 158/135/24
f 163/144/33 56/136/25 57/145/34 162/146/35
f 165/147/36 58/148/37 73/139/28 164/149/38
f 56/136/25 163/144/33 157/137/26
f 159/141/30 150/140/29 149/143/32 161/142/31
f 57/145/34 58/148/37 165/147/36 162/146/35
f 79/150/1 152/151/1 151/152/1 153/153/1 156/154/1 154/155/1 155/156/1 74/157/1 75/158/1 76/159/1 72/160/1 71/161/1 78/162/1 77/163/1 80/164/1
f 62/165/4 61/166/5 67/167/5 68/168/4
f 63/169/2 62/170/4 68/171/4 69/172/2
f 59/173/5 60/174/3 66/175/3 65/176/5
f 160/177/27 66/178/3 60/179/3 63/180/2 69/181/2 164/182/38 73/183/28
f 70/184/5 64/185/5 59/186/5 65/187/5
f 70/188/5 67/189/5 61/190/5 64/191/5
f 82/192/39 96/193/40 179/194/41
f 82/192/39 179/194/41 181/195/42 166/196/43
f 83/197/44 180/198/45 178/199/46 82/192/39
f 81/200/47 190/201/48 188/202/49 186/203/49
f 83/197/44 182/204/50 171/205/50 180/198/45
f 176/206/1 185/207/1 100/208/1 98/209/1 177/210/1 97/211/1 99/212/1 170/213/1 172/214/1 189/215/1 106/216/1 109/217/1 108/218/1 167/219/1 169/220/1 173/221/1 174/222/1 175/223/1
f 86/224/5 92/225/5 87/226/4 84/227/4
f 85/228/2 91/229/2 93/230/3 88/231/3
f 84/232/4 87/233/4 91/234/2 85/235/2
f 90/236/3 95/237/3 92/238/5 86/239/5
f 89/240/3 94/241/3 101/242/51 183/243/51 184/244/51 95/245/3 90/246/3
f 88/247/3 93/248/3 168/249/23 187/250/23 105/251/23 94/252/3 89/253/3
f 191/254/52 81/200/47 104/255/53 107/256/53
f 96/193/40 82/192/39 178/199/46
f 190/201/48 81/200/47 192/257/54
f 102/258/55 166/196/43 181/195/42 103/259/55
f 192/257/54 81/200/47 191/254/52
f 193/260/1 196/261/1 195/262/1 194/263/1
f 110/264/4 114/265/4 115/266/2 111/267/2
f 112/268/5 116/269/5 114/270/4 110/271/4
f 113/272/3 117/273/3 116/274/5 112/275/5
f 111/276/2 115/277/2 117/278/3 113/279/3
