# Blender v2.93.4 OBJ File: 'Fondo.blend'
# www.blender.org
mtllib Fondo-A.mtl
o Fondo-A_Plane.009
v -1.000000 0.000000 0.067135
v -0.763438 0.000000 -0.260110
v -1.000000 0.000000 -0.260110
v -0.763438 0.000000 0.067135
v -1.000000 0.036035 0.067135
v -0.763438 0.036035 -0.260110
v -1.000000 0.036035 -0.260110
v -0.763438 0.036035 0.067135
v -1.000000 -0.000390 -1.000000
v -1.000000 0.066308 -0.960507
v -0.500000 0.000000 -0.729780
v -1.000000 0.000000 -0.729780
v -0.500000 -0.000390 -1.000000
v -0.500000 0.036035 -0.729780
v -1.000000 0.036035 -0.729780
v -0.500000 0.066308 -0.980311
v -1.000000 0.036035 -0.823999
v -0.500000 0.036035 -0.923728
v -1.000000 0.000000 -0.729780
v -1.000000 0.000000 -0.260110
v -1.000000 0.014327 -0.729780
v -0.500000 0.000000 -0.729780
v -1.000000 0.014327 -0.260110
v -0.500000 0.000000 -0.260110
v -0.500000 0.014327 -0.729780
v -0.500000 0.014327 -0.260110
v 0.096709 0.000000 -1.000000
v -0.500000 0.024024 -1.000000
v -0.500000 0.000000 -1.000000
v 0.096709 0.000000 -0.489556
v -0.500000 0.000000 -0.260110
v -0.109896 0.000000 -0.489556
v -0.109896 0.000000 -0.260110
v 0.096709 0.024024 -1.000000
v 0.096709 0.024024 -0.489556
v -0.500000 0.024024 -0.260110
v -0.109896 0.024024 -0.489556
v -0.109896 0.024024 -0.260110
v 0.096709 -0.000000 -0.661257
v 0.651921 -0.000000 -0.661257
v 0.096709 -0.000000 -0.337599
v 0.651921 -0.000000 -0.337599
v 0.096709 0.036035 -0.661257
v 0.651921 0.036035 -0.661257
v 0.096709 0.036035 -0.337599
v 0.651921 0.036035 -0.337599
v 0.096709 0.000000 -0.661257
v 0.651921 0.000000 -0.661257
v 0.096709 0.014327 -0.661257
v 0.096709 0.000000 -1.000000
v 0.651921 0.000000 -1.000000
v 0.651921 0.014327 -0.661257
v 0.096709 0.014327 -1.000000
v 0.651921 0.014327 -1.000000
v 1.000000 0.000000 -1.000000
v 1.000000 0.000000 -0.260110
v 0.651921 0.000000 -1.000000
v 0.651921 0.000000 -0.260110
v 1.000000 0.050441 -1.000000
v 1.000000 0.050441 -0.260110
v 0.651921 0.050441 -1.000000
v 0.651921 0.050441 -0.260110
v 0.096709 0.000000 -0.489556
v 0.096709 0.000000 -0.096488
v -0.109896 0.000000 -0.489556
v -0.109896 0.000000 -0.096488
v 0.096709 0.070625 -0.489556
v 0.096709 0.070625 -0.096488
v -0.109896 0.080366 -0.489556
v -0.109896 0.070625 -0.096488
v -0.006594 0.070625 -0.489556
v -0.109896 0.070625 -0.293022
v -0.062017 0.023996 -0.489556
v -0.058245 0.070625 -0.391289
v -0.084548 0.076570 -0.489556
v -0.062017 0.074420 -0.489556
v -0.084548 0.025071 -0.489556
v -0.071614 0.043712 -0.442951
v -0.057940 0.039299 -0.392907
v -0.075427 0.025071 -0.456188
v -0.059916 0.042899 -0.443442
v -0.061496 0.023996 -0.458345
v -0.109896 0.000000 0.067135
v -0.763438 0.000000 0.067135
v -0.763438 0.000000 -0.260110
v -0.109896 0.000000 -0.260110
v -0.109896 0.050441 0.067135
v -0.763438 0.050441 0.067135
v -0.763438 0.101384 -0.260110
v -0.109896 0.081453 -0.260110
v -0.763438 0.050441 -0.071986
v -0.589207 0.081453 -0.260110
v -0.109896 0.050441 -0.096488
v -1.000000 0.036035 0.067135
v -1.000000 0.036035 -0.260110
v -0.763438 0.036035 0.067135
v -0.763438 0.036035 -0.260110
v -1.000000 0.066308 -0.960507
v -1.000000 0.066308 -0.960507
v -0.500000 0.066308 -0.980311
v -0.500000 0.066308 -0.980311
v -1.000000 0.036035 -0.823999
v -0.500000 0.036035 -0.729780
v -1.000000 0.036035 -0.729780
v -0.500000 0.036035 -0.923728
v -0.500000 0.014327 -0.260110
v -1.000000 0.014327 -0.260110
v -1.000000 0.014327 -0.729780
v -0.500000 0.014327 -0.729780
v -0.109896 0.024024 -0.260110
v -0.500000 0.024024 -0.260110
v 0.096709 0.024024 -0.489556
v 0.096709 0.024024 -1.000000
v -0.500000 0.024024 -1.000000
v -0.109896 0.024024 -0.489556
v 0.096709 0.036035 -0.337599
v 0.096709 0.036035 -0.661257
v 0.651921 0.036035 -0.661257
v 0.651921 0.036035 -0.337599
v 0.096709 0.014327 -1.000000
v 0.651921 0.014327 -1.000000
v 0.096709 0.014327 -0.661257
v 0.651921 0.014327 -0.661257
v 0.651921 0.050441 -1.000000
v 1.000000 0.050441 -1.000000
v 1.000000 0.050441 -0.260110
v 0.651921 0.050441 -0.260110
v -0.084548 0.076570 -0.489556
v -0.084548 0.076570 -0.489556
v -0.058245 0.070625 -0.391289
v 0.096709 0.070625 -0.096488
v -0.109896 0.070625 -0.096488
v -0.006594 0.070625 -0.489556
v 0.096709 0.070625 -0.489556
v -0.109896 0.070625 -0.293022
v -0.109896 0.080366 -0.489556
v -0.062017 0.074420 -0.489556
v -0.062017 0.074420 -0.489556
v -0.109896 0.050441 -0.096488
v -0.109896 0.081453 -0.260110
v -0.109896 0.050441 0.067135
v -0.763438 0.050441 0.067135
v -0.763438 0.050441 -0.071986
v -0.763438 0.101384 -0.260110
v -0.589207 0.081453 -0.260110
v -1.000000 -0.000390 -1.000000
v -0.500000 -0.000390 -1.000000
vt 0.233698 0.688550
vt 0.233698 0.584337
vt 0.309032 0.584337
vt 0.309032 0.688550
vt 0.945568 0.891378
vt 0.934092 0.891378
vt 0.934092 0.787165
vt 0.945568 0.787165
vt 0.904733 0.731079
vt 0.893258 0.731079
vt 0.893258 0.626867
vt 0.904733 0.626867
vt 0.861943 0.965574
vt 0.861943 0.954099
vt 0.937277 0.954099
vt 0.937277 0.965574
vt 0.309042 0.950528
vt 0.309042 0.962004
vt 0.233708 0.962004
vt 0.233708 0.950528
vt 0.028043 0.319750
vt 0.177612 0.319750
vt 0.177612 0.478978
vt 0.028043 0.478978
vt 0.600315 0.247097
vt 0.600315 0.251660
vt 0.441087 0.251660
vt 0.441087 0.247097
vt 0.878311 0.028043
vt 0.882873 0.028043
vt 0.882873 0.177607
vt 0.878310 0.177607
vt 0.844895 0.319750
vt 0.849457 0.319750
vt 0.849457 0.469315
vt 0.844894 0.469315
vt 0.876649 0.565860
vt 0.876649 0.570423
vt 0.717421 0.570423
vt 0.717421 0.565860
vt 0.152273 0.028043
vt 0.152273 0.101111
vt 0.218068 0.101111
vt 0.218068 0.263664
vt 0.028043 0.263665
vt 0.028043 0.028043
vt 0.913194 0.443980
vt 0.905543 0.443980
vt 0.905543 0.319750
vt 0.913194 0.319750
vt 0.309032 0.744636
vt 0.309032 0.752287
vt 0.073409 0.752287
vt 0.073409 0.744636
vt 0.781158 0.319750
vt 0.788808 0.319750
vt 0.788808 0.482303
vt 0.781158 0.482303
vt 0.717421 0.319750
vt 0.725072 0.319750
vt 0.725072 0.509774
vt 0.717421 0.509774
vt 0.073409 0.971957
vt 0.073409 0.964306
vt 0.139204 0.964306
vt 0.139204 0.971957
vt 0.938959 0.187199
vt 0.946610 0.187199
vt 0.946610 0.260267
vt 0.938959 0.260267
vt 0.396153 0.483711
vt 0.572963 0.483711
vt 0.572963 0.586781
vt 0.396153 0.586781
vt 0.938959 0.028043
vt 0.950434 0.028043
vt 0.950434 0.131113
vt 0.938959 0.131113
vt 0.805857 0.787165
vt 0.805857 0.798641
vt 0.629048 0.798641
vt 0.629048 0.787165
vt 0.073409 0.908220
vt 0.073409 0.896745
vt 0.176480 0.896745
vt 0.176480 0.908220
vt 0.396153 0.798641
vt 0.396153 0.787165
vt 0.572962 0.787165
vt 0.572962 0.798641
vt 0.572963 0.319750
vt 0.572963 0.427625
vt 0.396153 0.427625
vt 0.396153 0.319750
vt 0.667987 0.915375
vt 0.667987 0.919938
vt 0.560113 0.919938
vt 0.560113 0.915375
vt 0.396153 0.919938
vt 0.396153 0.915375
vt 0.504027 0.915375
vt 0.504027 0.919938
vt 0.660362 0.731079
vt 0.660362 0.726517
vt 0.837172 0.726517
vt 0.837172 0.731079
vt 0.572962 0.854727
vt 0.572962 0.859289
vt 0.396153 0.859289
vt 0.396153 0.854727
vt 0.385001 0.028043
vt 0.385001 0.263664
vt 0.274154 0.263665
vt 0.274154 0.028043
vt 0.861943 0.787165
vt 0.878006 0.787165
vt 0.878006 0.898013
vt 0.861943 0.898013
vt 0.839571 0.243357
vt 0.839571 0.259420
vt 0.728724 0.259420
vt 0.728724 0.243357
vt 0.631774 0.642867
vt 0.631774 0.658930
vt 0.396153 0.658930
vt 0.396153 0.642867
vt 0.672638 0.263664
vt 0.656575 0.263664
vt 0.656574 0.028043
vt 0.672638 0.028043
vt 0.600404 0.079787
vt 0.600488 0.109791
vt 0.441262 0.110241
vt 0.441087 0.048478
vt 0.441192 0.191011
vt 0.441087 0.166327
vt 0.600419 0.168865
vt 0.600419 0.191011
vt 0.332247 0.808373
vt 0.320728 0.864438
vt 0.311025 0.820980
vt 0.740199 0.187271
vt 0.728724 0.187271
vt 0.728724 0.028043
vt 0.740199 0.028043
vt 0.254939 0.894442
vt 0.233708 0.888141
vt 0.243375 0.870136
vt 0.243464 0.808373
vt 0.254939 0.808389
vt 0.600488 0.035260
vt 0.441300 0.028043
vt 0.028189 0.597651
vt 0.044637 0.628945
vt 0.036205 0.660280
vt 0.028043 0.660315
vt 0.805857 0.936406
vt 0.805857 0.958897
vt 0.740063 0.958897
vt 0.740063 0.936406
vt 0.968632 0.533259
vt 0.961788 0.543570
vt 0.953417 0.550949
vt 0.932735 0.548150
vt 0.687860 0.668460
vt 0.687860 0.645969
vt 0.750447 0.645969
vt 0.813035 0.642867
vt 0.813035 0.668460
vt 0.150069 0.535064
vt 0.172560 0.535064
vt 0.172560 0.660238
vt 0.150069 0.660238
vt 0.028189 0.535064
vt 0.093983 0.535064
vt 0.093983 0.660238
vt 0.061086 0.660238
vt 0.941988 0.564651
vt 0.950342 0.558732
vt 0.952765 0.559863
vt 0.951055 0.569239
vt 0.790610 0.862368
vt 0.790610 0.878426
vt 0.772960 0.877218
vt 0.740063 0.877218
vt 0.740063 0.854727
vt 0.805857 0.854727
vt 0.805857 0.880320
vt 0.797785 0.879111
vt 0.797785 0.862711
vt 0.043395 0.660260
vt 0.957982 0.553778
vt 0.968632 0.570423
vt 0.235017 0.375581
vt 0.233698 0.319750
vt 0.295763 0.320128
vt 0.073409 0.840659
vt 0.073409 0.824596
vt 0.117713 0.824596
vt 0.177622 0.808373
vt 0.177622 0.840659
vt 0.661335 0.527874
vt 0.629049 0.527874
vt 0.635396 0.472389
vt 0.635396 0.319750
vt 0.661335 0.319750
vt 0.396153 0.731079
vt 0.396153 0.715016
vt 0.604276 0.715016
vt 0.604276 0.731079
vt 0.822224 0.132256
vt 0.796285 0.132256
vt 0.806161 0.080149
vt 0.806161 0.028043
vt 0.822224 0.028043
vt 0.287961 0.528252
vt 0.340067 0.320128
vt 0.340067 0.528252
vt 0.234927 0.528220
vt 0.332247 0.894426
vt 0.320772 0.894442
vn 0.0000 1.0000 0.0000
vn 1.0000 0.0000 0.0000
vn -1.0000 0.0000 0.0000
vn 0.0000 0.0000 1.0000
vn 0.0000 0.0000 -1.0000
vn 0.0158 0.9910 0.1325
vn 0.0202 0.9854 0.1692
vn -0.0181 0.4055 -0.9139
vn 0.7074 0.0000 0.7068
vn 0.7071 0.0000 0.7071
vn -0.7071 0.0000 0.7071
vn -0.7074 0.0000 0.7068
vn 0.0357 0.9536 0.2990
vn 0.0162 0.9998 0.0067
vn 0.0473 0.9987 0.0203
vn 0.1045 0.9936 0.0435
vn -0.0835 0.0290 -0.9961
vn -0.1327 0.4410 -0.8876
vn 0.8235 0.3996 -0.4028
vn 0.9645 0.0049 -0.2640
vn -0.7305 0.0000 -0.6829
vn -0.7071 0.0000 -0.7071
vn 0.7071 0.0000 -0.7071
vn 0.0237 0.9996 0.0124
vn 0.5482 0.4478 -0.7064
vn 0.5600 0.7671 -0.3127
vn -0.5589 0.8163 -0.1457
vn -0.5607 0.6101 -0.5598
vn 0.0683 0.9970 0.0359
vn -0.8888 0.4276 -0.1647
vn -0.9992 0.0049 0.0391
vn 0.0324 0.9795 0.1986
vn 0.1097 0.9594 0.2598
vn 0.0272 0.9939 0.1066
vn -0.6676 0.0000 -0.7445
vn 0.6609 0.0000 -0.7504
vn 0.0019 0.9959 0.0902
vn 0.0038 0.9845 0.1755
usemtl Fondo-Mat-A
s off
f 95/1/1 94/2/1 96/3/1 97/4/1
f 2/5/2 6/6/2 8/7/2 4/8/2
f 1/9/3 5/10/3 7/11/3 3/12/3
f 4/13/4 8/14/4 5/15/4 1/16/4
f 3/17/5 7/18/5 6/19/5 2/20/5
f 108/21/1 107/22/1 106/23/1 109/24/1
f 19/25/5 21/26/5 25/27/5 22/28/5
f 22/29/2 25/30/2 26/31/2 24/32/2
f 20/33/3 23/34/3 21/35/3 19/36/3
f 24/37/4 26/38/4 23/39/4 20/40/4
f 110/41/1 115/42/1 112/43/1 113/44/1 114/45/1 111/46/1
f 33/47/4 38/48/4 36/49/4 31/50/4
f 31/51/3 36/52/3 28/53/3 29/54/3
f 27/55/2 34/56/2 35/57/2 30/58/2
f 29/59/5 28/60/5 34/61/5 27/62/5
f 30/63/4 35/64/4 37/65/4 32/66/4
f 32/67/2 37/68/2 38/69/2 33/70/2
f 116/71/1 119/72/1 118/73/1 117/74/1
f 41/75/3 45/76/3 43/77/3 39/78/3
f 39/79/5 43/80/5 44/81/5 40/82/5
f 40/83/2 44/84/2 46/85/2 42/86/2
f 42/87/4 46/88/4 45/89/4 41/90/4
f 123/91/1 121/92/1 120/93/1 122/94/1
f 47/95/3 49/96/3 53/97/3 50/98/3
f 51/99/2 54/100/2 52/101/2 48/102/2
f 48/103/4 52/104/4 49/105/4 47/106/4
f 50/107/5 53/108/5 54/109/5 51/110/5
f 126/111/1 125/112/1 124/113/1 127/114/1
f 56/115/4 60/116/4 62/117/4 58/118/4
f 57/119/5 61/120/5 59/121/5 55/122/5
f 58/123/3 62/124/3 61/125/3 57/126/3
f 55/127/2 59/128/2 60/129/2 56/130/2
s 1
f 17/131/6 104/132/1 103/133/1 18/134/7
f 146/135/8 98/136/8 100/137/8 147/138/8
f 9/139/3 102/140/3 99/141/3
f 11/142/9 14/143/10 15/144/11 12/145/12
f 13/146/2 101/147/2 105/148/2 14/149/10 11/150/9
f 10/151/13 17/131/6 18/134/7 16/152/13
f 135/153/14 130/154/15 128/155/16 136/156/16
f 64/157/10 131/158/10 132/159/11 66/160/11
f 74/161/17 79/162/18 78/163/19 75/164/20
f 66/165/11 132/166/11 72/167/3 69/168/21 65/169/22
f 63/170/23 67/171/23 131/172/10 64/173/10
f 70/174/1 68/175/1 134/176/1 133/177/24 130/154/15 135/153/14
f 77/178/25 80/179/26 82/180/27 73/181/28
f 73/182/28 138/183/5 71/184/5 67/185/23 63/186/23 65/187/22 69/188/21 129/189/5 77/190/25
f 133/177/24 137/191/29 130/154/15
f 75/164/20 78/163/19 80/179/26 77/178/25
f 73/181/28 82/180/27 81/192/30 76/193/31
f 76/193/31 81/192/30 79/162/18 74/161/17
f 145/194/32 144/195/33 143/196/34
f 84/197/11 142/198/11 91/199/3 89/200/35 85/201/22
f 85/202/22 89/203/35 92/204/5 140/205/36 86/206/23
f 83/207/10 141/208/10 142/209/11 84/210/11
f 86/211/23 140/212/36 139/213/2 141/214/10 83/215/10
f 93/216/37 143/196/34 88/217/1 87/218/1
f 90/219/38 145/194/32 143/196/34 93/216/37
f 81/192/30 82/180/27 80/179/26 78/163/19 79/162/18
f 12/220/12 15/221/11 102/140/3 9/139/3
