# Blender v2.93.4 OBJ File: 'limon.blend'
# www.blender.org
mtllib Limon-1_4BB.mtl
o Limon-1_4BB_Sphere.006
v -0.180013 -1.170679 0.086689
v -0.296604 -0.968898 0.142837
v -0.480283 -0.781885 0.231292
v -0.680301 -0.552876 0.327615
v -0.761006 -0.286190 0.366481
v -0.124573 -1.170679 0.156209
v -0.205256 -0.968898 0.257383
v -0.332366 -0.781885 0.416773
v -0.470783 -0.552876 0.590343
v -0.526632 -0.286190 0.660375
v -0.044460 -1.170679 0.194789
v -0.073255 -0.968898 0.320952
v -0.118620 -0.781885 0.519708
v -0.168021 -0.552876 0.736145
v -0.187953 -0.286190 0.823475
v 0.044459 -1.170679 0.194789
v 0.073255 -0.968898 0.320952
v 0.118620 -0.781885 0.519708
v 0.168020 -0.552876 0.736145
v 0.187952 -0.286190 0.823475
v 0.124572 -1.170679 0.156209
v 0.205256 -0.968898 0.257383
v 0.332366 -0.781885 0.416773
v 0.470782 -0.552876 0.590343
v 0.526632 -0.286190 0.660375
v 0.180012 -1.170679 0.086689
v 0.296604 -0.968898 0.142837
v 0.480282 -0.781885 0.231292
v 0.680300 -0.552876 0.327615
v 0.761005 -0.286190 0.366481
v -0.533073 -0.781885 0.000000
v 0.199798 -1.170679 -0.000000
v 0.329205 -0.968898 -0.000000
v 0.533073 -0.781884 -0.000000
v 0.755076 -0.552876 -0.000000
v 0.844652 -0.286190 -0.000000
v 0.000000 -1.272073 0.000000
v -0.199799 -1.170679 0.000000
v -0.329206 -0.968898 0.000000
v -0.755077 -0.552876 -0.000000
v -0.844652 -0.286190 -0.000000
v -0.874449 -0.000000 -0.000000
v -0.787851 -0.000000 0.379409
v -0.545210 -0.000000 0.683671
v -0.194583 0.000000 0.852524
v 0.194583 0.000000 0.852524
v 0.545209 0.000000 0.683671
v 0.787850 0.000000 0.379409
v 0.874448 0.000000 -0.000000
v -0.000000 0.000000 -0.000000
vt 0.597033 0.555550
vt 0.616183 0.646037
vt 0.565875 0.660935
vt 0.535795 0.589887
vt 0.613663 0.793177
vt 0.590087 0.850365
vt 0.594382 0.792968
vt 0.556493 0.487833
vt 0.498584 0.537156
vt 0.616183 0.726500
vt 0.583946 0.731619
vt 0.501526 0.432239
vt 0.452441 0.490976
vt 0.485835 0.631763
vt 0.448015 0.587846
vt 0.576209 0.799602
vt 0.552655 0.746911
vt 0.405181 0.547407
vt 0.522453 0.688729
vt 0.483133 0.724999
vt 0.439517 0.679865
vt 0.559989 0.811630
vt 0.399308 0.642039
vt 0.523998 0.769992
vt 0.356939 0.604898
vt 0.352067 0.698981
vt 0.308173 0.663646
vt 0.499382 0.798469
vt 0.447742 0.766436
vt 0.396162 0.732133
vt 0.546883 0.827477
vt 0.356922 0.785711
vt 0.307198 0.756219
vt 0.537736 0.845456
vt 0.481643 0.831032
vt 0.259931 0.721137
vt 0.419140 0.811562
vt 0.399454 0.859077
vt 0.324530 0.842039
vt 0.534289 0.864487
vt 0.266224 0.814787
vt 0.472012 0.864570
vt 0.212671 0.777568
vt 0.228016 0.880389
vt 0.163586 0.836305
vt 0.472507 0.897170
vt 0.393602 0.911021
vt 0.301612 0.908141
vt 0.537787 0.883453
vt 0.930356 0.503656
vt 0.732947 0.284019
vt 0.883930 0.148316
vt 0.923198 0.202354
vt 0.949118 0.262301
vt 0.946326 0.336294
vt 0.940148 0.400222
vt 0.949118 0.455143
vt 0.826466 0.502398
vt 0.762244 0.501746
vt 0.688373 0.496657
vt 0.631521 0.464511
vt 0.581964 0.419722
vt 0.880123 0.517156
vt 0.943147 0.343204
vt 0.916841 0.428496
vt 0.853721 0.485796
vt 0.766289 0.503754
vt 0.671861 0.478812
vt 0.589141 0.415912
vt 0.730971 0.287161
vt 0.872800 0.158410
vt 0.927429 0.246811
vn -0.6983 -0.4103 -0.5865
vn -0.5362 -0.5479 -0.6420
vn -0.6301 -0.7147 0.3034
vn -0.7768 -0.5066 0.3741
vn -0.5557 -0.5826 -0.5931
vn 0.0000 -0.8748 -0.4844
vn -0.6218 -0.7236 0.2994
vn -0.7823 -0.1673 -0.5999
vn -0.8810 -0.2091 0.4243
vn -0.6050 -0.5215 -0.6016
vn -0.6824 -0.6529 0.3286
vn -0.6758 0.5358 -0.5062
vn -0.7060 0.6212 0.3400
vn -0.5376 -0.5066 0.6741
vn -0.6097 -0.2091 0.7645
vn -0.4303 -0.7236 0.5396
vn -0.4722 -0.6529 0.5922
vn -0.4886 0.6212 0.6127
vn -0.4361 -0.7147 0.5468
vn -0.1556 -0.7147 0.6819
vn -0.1918 -0.5066 0.8405
vn -0.1536 -0.7236 0.6729
vn -0.2176 -0.2091 0.9534
vn -0.1685 -0.6529 0.7385
vn -0.1744 0.6212 0.7640
vn 0.2176 -0.2091 0.9534
vn 0.1744 0.6212 0.7640
vn 0.1685 -0.6529 0.7385
vn 0.1556 -0.7147 0.6819
vn 0.1918 -0.5066 0.8405
vn 0.1536 -0.7236 0.6729
vn 0.5376 -0.5066 0.6741
vn 0.6097 -0.2091 0.7645
vn 0.4303 -0.7236 0.5396
vn 0.4722 -0.6529 0.5922
vn 0.4886 0.6212 0.6127
vn 0.4361 -0.7147 0.5468
vn 0.6301 -0.7147 0.3034
vn 0.7768 -0.5066 0.3741
vn 0.6218 -0.7236 0.2994
vn 0.8810 -0.2091 0.4243
vn 0.6824 -0.6529 0.3286
vn 0.7060 0.6212 0.3400
vn 0.7823 -0.1673 -0.5999
vn 0.6758 0.5358 -0.5062
vn 0.6050 -0.5215 -0.6016
vn 0.5362 -0.5479 -0.6420
vn 0.6983 -0.4103 -0.5865
vn 0.5557 -0.5826 -0.5931
vn 0.0000 0.7070 -0.7071
usemtl Limon-Mat
s 1
f 40/1/1 31/2/2 3/3/3 4/4/4
f 38/5/5 37/6/6 1/7/7
f 41/8/8 40/1/1 4/4/4 5/9/9
f 39/10/10 38/5/5 1/7/7 2/11/11
f 42/12/12 41/8/8 5/9/9 43/13/13
f 31/2/2 39/10/10 2/11/11 3/3/3
f 5/9/9 4/4/4 9/14/14 10/15/15
f 2/11/11 1/7/7 6/16/16 7/17/17
f 43/13/13 5/9/9 10/15/15 44/18/18
f 3/3/3 2/11/11 7/17/17 8/19/19
f 4/4/4 3/3/3 8/19/19 9/14/14
f 1/7/7 37/6/6 6/16/16
f 9/14/14 8/19/19 13/20/20 14/21/21
f 6/16/16 37/6/6 11/22/22
f 10/15/15 9/14/14 14/21/21 15/23/23
f 7/17/17 6/16/16 11/22/22 12/24/24
f 44/18/18 10/15/15 15/23/23 45/25/25
f 8/19/19 7/17/17 12/24/24 13/20/20
f 45/25/25 15/23/23 20/26/26 46/27/27
f 13/20/20 12/24/24 17/28/28 18/29/29
f 14/21/21 13/20/20 18/29/29 19/30/30
f 11/22/22 37/6/6 16/31/31
f 15/23/23 14/21/21 19/30/30 20/26/26
f 12/24/24 11/22/22 16/31/31 17/28/28
f 20/26/26 19/30/30 24/32/32 25/33/33
f 17/28/28 16/31/31 21/34/34 22/35/35
f 46/27/27 20/26/26 25/33/33 47/36/36
f 18/29/29 17/28/28 22/35/35 23/37/37
f 19/30/30 18/29/29 23/37/37 24/32/32
f 16/31/31 37/6/6 21/34/34
f 24/32/32 23/37/37 28/38/38 29/39/39
f 21/34/34 37/6/6 26/40/40
f 25/33/33 24/32/32 29/39/39 30/41/41
f 22/35/35 21/34/34 26/40/40 27/42/42
f 47/36/36 25/33/33 30/41/41 48/43/43
f 23/37/37 22/35/35 27/42/42 28/38/38
f 48/43/43 30/41/41 36/44/44 49/45/45
f 28/38/38 27/42/42 33/46/46 34/47/47
f 29/39/39 28/38/38 34/47/47 35/48/48
f 26/40/40 37/6/6 32/49/49
f 30/41/41 29/39/39 35/48/48 36/44/44
f 27/42/42 26/40/40 32/49/49 33/46/46
f 37/50/6 50/51/50 49/52/45 36/53/44 35/54/48 34/55/47 33/56/46 32/57/49
f 39/58/10 31/59/2 40/60/1 41/61/8 42/62/12 50/51/50 37/50/6 38/63/5
f 44/64/18 45/65/25 46/66/27 47/67/36 48/68/43 49/69/45 50/70/50 42/71/12 43/72/13
