# Blender v2.92.0 OBJ File: 'limon.blend'
# www.blender.org
mtllib Limon-1-2.mtl
o Limon-1_2_Sphere.001
v -0.180013 -1.170679 0.086689
v -0.296604 -0.968898 0.142837
v -0.480283 -0.781885 0.231292
v -0.680301 -0.552876 0.327615
v -0.761006 -0.286190 0.366481
v -0.787851 -0.000000 0.379409
v -0.761006 0.286190 0.366481
v -0.680301 0.552876 0.327615
v -0.480283 0.781884 0.231292
v -0.296604 0.968898 0.142837
v -0.180013 1.170679 0.086689
v -0.124573 -1.170679 0.156209
v -0.205256 -0.968898 0.257383
v -0.332366 -0.781885 0.416773
v -0.470783 -0.552876 0.590343
v -0.526632 -0.286190 0.660375
v -0.545210 -0.000000 0.683671
v -0.526632 0.286190 0.660376
v -0.470783 0.552876 0.590343
v -0.332366 0.781884 0.416774
v -0.205257 0.968898 0.257383
v -0.124573 1.170679 0.156209
v -0.044460 -1.170679 0.194789
v -0.073255 -0.968898 0.320952
v -0.118620 -0.781885 0.519708
v -0.168021 -0.552876 0.736145
v -0.187953 -0.286190 0.823475
v -0.194583 0.000000 0.852524
v -0.187953 0.286190 0.823475
v -0.168021 0.552876 0.736145
v -0.118620 0.781884 0.519708
v -0.073255 0.968898 0.320952
v -0.044460 1.170679 0.194789
v 0.044459 -1.170679 0.194789
v 0.073255 -0.968898 0.320952
v 0.118620 -0.781885 0.519708
v 0.168020 -0.552876 0.736145
v 0.187952 -0.286190 0.823475
v 0.194583 0.000000 0.852524
v 0.187952 0.286190 0.823475
v 0.168020 0.552876 0.736145
v 0.118620 0.781885 0.519708
v 0.073255 0.968898 0.320952
v 0.044459 1.170679 0.194789
v 0.124572 -1.170679 0.156209
v 0.205256 -0.968898 0.257383
v 0.332366 -0.781885 0.416773
v 0.470782 -0.552876 0.590343
v 0.526632 -0.286190 0.660375
v 0.545209 0.000000 0.683671
v 0.526632 0.286190 0.660376
v 0.470782 0.552876 0.590343
v 0.332365 0.781884 0.416773
v 0.205256 0.968898 0.257383
v 0.124572 1.170679 0.156209
v 0.180012 -1.170679 0.086689
v 0.296604 -0.968898 0.142837
v 0.480282 -0.781885 0.231292
v 0.680300 -0.552876 0.327615
v 0.761005 -0.286190 0.366481
v 0.787850 0.000000 0.379409
v 0.761005 0.286190 0.366481
v 0.680300 0.552876 0.327615
v 0.480282 0.781884 0.231292
v 0.296604 0.968898 0.142837
v 0.180012 1.170679 0.086689
v -0.000000 1.272074 -0.000000
v -0.533073 -0.781885 0.000000
v 0.199798 -1.170679 -0.000000
v 0.329205 -0.968898 -0.000000
v 0.533073 -0.781884 -0.000000
v 0.755076 -0.552876 -0.000000
v 0.844652 -0.286190 -0.000000
v 0.874448 0.000000 -0.000000
v 0.844652 0.286190 -0.000000
v 0.755076 0.552876 -0.000000
v 0.533073 0.781885 -0.000000
v 0.329205 0.968898 -0.000000
v 0.199799 1.170679 -0.000000
v 0.000000 -1.272073 0.000000
v -0.199799 -1.170679 0.000000
v -0.329206 -0.968898 0.000000
v -0.755077 -0.552876 -0.000000
v -0.844652 -0.286190 -0.000000
v -0.874449 -0.000000 -0.000000
v -0.844652 0.286190 -0.000000
v -0.755077 0.552876 -0.000000
v -0.533074 0.781884 -0.000000
v -0.329206 0.968898 -0.000000
v -0.199799 1.170679 -0.000000
vt 0.192604 0.371374
vt 0.271509 0.357523
vt 0.265658 0.409468
vt 0.193100 0.403974
vt 0.437096 0.388155
vt 0.501526 0.432239
vt 0.452441 0.490976
vt 0.398888 0.453757
vt 0.597033 0.555550
vt 0.616183 0.646037
vt 0.565875 0.660935
vt 0.535795 0.589887
vt 0.127325 0.385091
vt 0.130823 0.404057
vt 0.613663 0.793177
vt 0.590087 0.850365
vt 0.594382 0.792968
vt 0.363500 0.360402
vt 0.340582 0.426505
vt 0.556493 0.487833
vt 0.498584 0.537156
vt 0.075025 0.418179
vt 0.616183 0.726500
vt 0.583946 0.731619
vt 0.485835 0.631763
vt 0.448015 0.587846
vt 0.127376 0.423088
vt 0.576209 0.799602
vt 0.552655 0.746911
vt 0.308190 0.482833
vt 0.245972 0.456982
vt 0.405181 0.547407
vt 0.522453 0.688729
vt 0.183468 0.437512
vt 0.357914 0.512325
vt 0.356939 0.604898
vt 0.313045 0.569563
vt 0.483133 0.724999
vt 0.439517 0.679865
vt 0.165730 0.470075
vt 0.118229 0.441068
vt 0.559989 0.811630
vt 0.268949 0.536411
vt 0.399308 0.642039
vt 0.523998 0.769992
vt 0.217369 0.502108
vt 0.352067 0.698981
vt 0.308173 0.663646
vt 0.499382 0.798469
vt 0.447742 0.766436
vt 0.181979 0.543545
vt 0.141113 0.498553
vt 0.265804 0.626505
vt 0.396162 0.732133
vt 0.105123 0.456915
vt 0.546883 0.827477
vt 0.225595 0.588679
vt 0.217097 0.680698
vt 0.179277 0.636781
vt 0.356922 0.785711
vt 0.307198 0.756219
vt 0.088903 0.468942
vt 0.537736 0.845456
vt 0.481643 0.831032
vt 0.142659 0.579816
vt 0.259931 0.721137
vt 0.419140 0.811562
vt 0.112457 0.521634
vt 0.212671 0.777568
vt 0.166528 0.731388
vt 0.399454 0.859077
vt 0.324530 0.842039
vt 0.081166 0.536925
vt 0.070730 0.475576
vt 0.534289 0.864487
vt 0.129317 0.678657
vt 0.266224 0.814787
vt 0.472012 0.864570
vt 0.099237 0.607609
vt 0.068079 0.712994
vt 0.048929 0.622508
vt 0.228016 0.880389
vt 0.163586 0.836305
vt 0.472507 0.897170
vt 0.393602 0.911021
vt 0.048929 0.542044
vt 0.108619 0.780710
vt 0.301612 0.908141
vt 0.051449 0.475367
vt 0.537787 0.883453
vt 0.930356 0.503656
vt 0.535538 0.064381
vt 0.585770 0.050882
vt 0.639427 0.065640
vt 0.703650 0.066292
vt 0.777520 0.071381
vt 0.834372 0.103526
vt 0.883930 0.148316
vt 0.923198 0.202354
vt 0.949118 0.262301
vt 0.946326 0.336294
vt 0.940148 0.400222
vt 0.949118 0.455143
vt 0.826466 0.502398
vt 0.762244 0.501746
vt 0.688373 0.496657
vt 0.631521 0.464511
vt 0.581964 0.419722
vt 0.542695 0.365684
vt 0.516775 0.305737
vt 0.519568 0.231744
vt 0.525746 0.167816
vt 0.516775 0.112894
vt 0.880123 0.517156
vn -0.6050 0.5215 -0.6016
vn -0.5362 0.5479 -0.6420
vn -0.6301 0.7147 0.3034
vn -0.6824 0.6529 0.3286
vn -0.7823 0.1673 -0.5999
vn -0.8004 0.0000 -0.5995
vn -0.9010 0.0000 0.4339
vn -0.8810 0.2091 0.4243
vn -0.6983 -0.4103 -0.5865
vn -0.5362 -0.5479 -0.6420
vn -0.6301 -0.7147 0.3034
vn -0.7768 -0.5066 0.3741
vn -0.5557 0.5826 -0.5931
vn -0.6218 0.7236 0.2994
vn -0.5557 -0.5826 -0.5931
vn 0.0000 -0.8748 -0.4844
vn -0.6218 -0.7236 0.2994
vn -0.6983 0.4103 -0.5865
vn -0.7768 0.5066 0.3741
vn -0.7823 -0.1673 -0.5999
vn -0.8810 -0.2091 0.4243
vn 0.0000 0.8748 -0.4843
vn -0.6050 -0.5215 -0.6016
vn -0.6824 -0.6529 0.3286
vn -0.5376 -0.5066 0.6741
vn -0.6097 -0.2091 0.7645
vn -0.4303 0.7236 0.5396
vn -0.4303 -0.7236 0.5396
vn -0.4722 -0.6529 0.5922
vn -0.5376 0.5066 0.6741
vn -0.4361 0.7147 0.5468
vn -0.6235 0.0000 0.7818
vn -0.4361 -0.7147 0.5468
vn -0.4722 0.6529 0.5922
vn -0.6097 0.2091 0.7645
vn -0.2225 0.0000 0.9749
vn -0.2176 0.2091 0.9534
vn -0.1556 -0.7147 0.6819
vn -0.1918 -0.5066 0.8405
vn -0.1685 0.6529 0.7385
vn -0.1536 0.7236 0.6729
vn -0.1536 -0.7236 0.6729
vn -0.1918 0.5066 0.8405
vn -0.2176 -0.2091 0.9534
vn -0.1685 -0.6529 0.7385
vn -0.1556 0.7147 0.6819
vn 0.2176 -0.2091 0.9534
vn 0.2225 0.0000 0.9749
vn 0.1685 -0.6529 0.7385
vn 0.1556 -0.7147 0.6819
vn 0.1556 0.7147 0.6819
vn 0.1685 0.6529 0.7385
vn 0.2176 0.2091 0.9534
vn 0.1918 -0.5066 0.8405
vn 0.1536 0.7236 0.6729
vn 0.1536 -0.7236 0.6729
vn 0.1918 0.5066 0.8405
vn 0.6097 0.2091 0.7645
vn 0.5376 0.5066 0.6741
vn 0.5376 -0.5066 0.6741
vn 0.6097 -0.2091 0.7645
vn 0.4303 0.7236 0.5396
vn 0.4303 -0.7236 0.5396
vn 0.4722 -0.6529 0.5922
vn 0.4361 0.7147 0.5468
vn 0.6235 0.0000 0.7818
vn 0.4361 -0.7147 0.5468
vn 0.4722 0.6529 0.5922
vn 0.9010 0.0000 0.4339
vn 0.8810 0.2091 0.4243
vn 0.6301 -0.7147 0.3034
vn 0.7768 -0.5066 0.3741
vn 0.6824 0.6529 0.3286
vn 0.6218 0.7236 0.2994
vn 0.6218 -0.7236 0.2994
vn 0.7768 0.5066 0.3741
vn 0.8810 -0.2091 0.4243
vn 0.6824 -0.6529 0.3286
vn 0.6301 0.7147 0.3034
vn 0.6983 0.4103 -0.5865
vn 0.5362 0.5479 -0.6420
vn 0.7823 -0.1673 -0.5999
vn 0.8004 0.0000 -0.5995
vn 0.6050 -0.5215 -0.6016
vn 0.5362 -0.5479 -0.6420
vn 0.6050 0.5215 -0.6016
vn 0.7823 0.1673 -0.5999
vn 0.6983 -0.4103 -0.5865
vn 0.5557 0.5826 -0.5931
vn 0.5557 -0.5826 -0.5931
usemtl Limon-Mat
s 1
f 89/1/1 88/2/2 9/3/3 10/4/4
f 86/5/5 85/6/6 6/7/7 7/8/8
f 83/9/9 68/10/10 3/11/11 4/12/12
f 90/13/13 89/1/1 10/4/4 11/14/14
f 81/15/15 80/16/16 1/17/17
f 87/18/18 86/5/5 7/8/8 8/19/19
f 84/20/20 83/9/9 4/12/12 5/21/21
f 67/22/22 90/13/13 11/14/14
f 82/23/23 81/15/15 1/17/17 2/24/24
f 88/2/2 87/18/18 8/19/19 9/3/3
f 85/6/6 84/20/20 5/21/21 6/7/7
f 68/10/10 82/23/23 2/24/24 3/11/11
f 5/21/21 4/12/12 15/25/25 16/26/26
f 67/22/22 11/14/14 22/27/27
f 2/24/24 1/17/17 12/28/28 13/29/29
f 9/3/3 8/19/19 19/30/30 20/31/31
f 6/7/7 5/21/21 16/26/26 17/32/32
f 3/11/11 2/24/24 13/29/29 14/33/33
f 10/4/4 9/3/3 20/31/31 21/34/34
f 7/8/8 6/7/7 17/32/32 18/35/35
f 4/12/12 3/11/11 14/33/33 15/25/25
f 11/14/14 10/4/4 21/34/34 22/27/27
f 1/17/17 80/16/16 12/28/28
f 8/19/19 7/8/8 18/35/35 19/30/30
f 18/35/35 17/32/32 28/36/36 29/37/37
f 15/25/25 14/33/33 25/38/38 26/39/39
f 22/27/27 21/34/34 32/40/40 33/41/41
f 12/28/28 80/16/16 23/42/42
f 19/30/30 18/35/35 29/37/37 30/43/43
f 16/26/26 15/25/25 26/39/39 27/44/44
f 67/22/22 22/27/27 33/41/41
f 13/29/29 12/28/28 23/42/42 24/45/45
f 20/31/31 19/30/30 30/43/43 31/46/46
f 17/32/32 16/26/26 27/44/44 28/36/36
f 14/33/33 13/29/29 24/45/45 25/38/38
f 21/34/34 20/31/31 31/46/46 32/40/40
f 28/36/36 27/44/44 38/47/47 39/48/48
f 25/38/38 24/45/45 35/49/49 36/50/50
f 32/40/40 31/46/46 42/51/51 43/52/52
f 29/37/37 28/36/36 39/48/48 40/53/53
f 26/39/39 25/38/38 36/50/50 37/54/54
f 33/41/41 32/40/40 43/52/52 44/55/55
f 23/42/42 80/16/16 34/56/56
f 30/43/43 29/37/37 40/53/53 41/57/57
f 27/44/44 26/39/39 37/54/54 38/47/47
f 67/22/22 33/41/41 44/55/55
f 24/45/45 23/42/42 34/56/56 35/49/49
f 31/46/46 30/43/43 41/57/57 42/51/51
f 41/57/57 40/53/53 51/58/58 52/59/59
f 38/47/47 37/54/54 48/60/60 49/61/61
f 67/22/22 44/55/55 55/62/62
f 35/49/49 34/56/56 45/63/63 46/64/64
f 42/51/51 41/57/57 52/59/59 53/65/65
f 39/48/48 38/47/47 49/61/61 50/66/66
f 36/50/50 35/49/49 46/64/64 47/67/67
f 43/52/52 42/51/51 53/65/65 54/68/68
f 40/53/53 39/48/48 50/66/66 51/58/58
f 37/54/54 36/50/50 47/67/67 48/60/60
f 44/55/55 43/52/52 54/68/68 55/62/62
f 34/56/56 80/16/16 45/63/63
f 51/58/58 50/66/66 61/69/69 62/70/70
f 48/60/60 47/67/67 58/71/71 59/72/72
f 55/62/62 54/68/68 65/73/73 66/74/74
f 45/63/63 80/16/16 56/75/75
f 52/59/59 51/58/58 62/70/70 63/76/76
f 49/61/61 48/60/60 59/72/72 60/77/77
f 67/22/22 55/62/62 66/74/74
f 46/64/64 45/63/63 56/75/75 57/78/78
f 53/65/65 52/59/59 63/76/76 64/79/79
f 50/66/66 49/61/61 60/77/77 61/69/69
f 47/67/67 46/64/64 57/78/78 58/71/71
f 54/68/68 53/65/65 64/79/79 65/73/73
f 64/79/79 63/76/76 76/80/80 77/81/81
f 61/69/69 60/77/77 73/82/82 74/83/83
f 58/71/71 57/78/78 70/84/84 71/85/85
f 65/73/73 64/79/79 77/81/81 78/86/86
f 62/70/70 61/69/69 74/83/83 75/87/87
f 59/72/72 58/71/71 71/85/85 72/88/88
f 66/74/74 65/73/73 78/86/86 79/89/89
f 56/75/75 80/16/16 69/90/90
f 63/76/76 62/70/70 75/87/87 76/80/80
f 60/77/77 59/72/72 72/88/88 73/82/82
f 67/22/22 66/74/74 79/89/89
f 57/78/78 56/75/75 69/90/90 70/84/84
f 80/91/16 67/92/22 79/93/89 78/94/86 77/95/81 76/96/80 75/97/87 74/98/83 73/99/82 72/100/88 71/101/85 70/102/84 69/103/90
f 82/104/23 68/105/10 83/106/9 84/107/20 85/108/6 86/109/5 87/110/18 88/111/2 89/112/1 90/113/13 67/92/22 80/91/16 81/114/15
