# Blender v2.93.4 OBJ File: 'limon.blend'
# www.blender.org
mtllib Limon-1_4A.mtl
o Limon-1_4A_Sphere.005
v 0.787851 -0.000000 -0.379409
v 0.761006 0.286190 -0.366481
v 0.680301 0.552876 -0.327616
v 0.480283 0.781884 -0.231292
v 0.296604 0.968898 -0.142837
v 0.180013 1.170679 -0.086689
v 0.545210 -0.000000 -0.683671
v 0.526632 0.286190 -0.660376
v 0.470783 0.552876 -0.590343
v 0.332366 0.781884 -0.416774
v 0.205257 0.968898 -0.257383
v 0.124573 1.170679 -0.156209
v 0.194583 0.000000 -0.852524
v 0.187953 0.286190 -0.823475
v 0.168020 0.552876 -0.736145
v 0.118620 0.781884 -0.519708
v 0.073255 0.968898 -0.320952
v 0.044460 1.170679 -0.194789
v -0.194583 0.000000 -0.852524
v -0.187953 0.286190 -0.823475
v -0.168020 0.552876 -0.736145
v -0.118620 0.781885 -0.519708
v -0.073255 0.968898 -0.320952
v -0.044459 1.170679 -0.194789
v -0.545209 0.000000 -0.683671
v -0.526632 0.286190 -0.660375
v -0.470782 0.552876 -0.590342
v -0.332366 0.781884 -0.416773
v -0.205256 0.968898 -0.257383
v -0.124572 1.170679 -0.156209
v -0.787850 0.000000 -0.379408
v -0.761005 0.286190 -0.366480
v -0.680300 0.552876 -0.327615
v -0.480282 0.781884 -0.231292
v -0.296604 0.968898 -0.142837
v -0.180012 1.170679 -0.086689
v 0.000000 1.272074 0.000000
v -0.874448 0.000000 0.000000
v -0.844652 0.286190 0.000000
v -0.755076 0.552876 0.000000
v -0.533073 0.781885 0.000000
v -0.329205 0.968898 0.000000
v -0.199799 1.170679 0.000000
v 0.874449 -0.000000 -0.000000
v 0.844652 0.286190 -0.000000
v 0.755077 0.552876 -0.000000
v 0.533074 0.781884 -0.000000
v 0.329206 0.968898 0.000000
v 0.199799 1.170679 0.000000
v 0.000000 0.000000 0.000000
vt 0.192604 0.371374
vt 0.271509 0.357523
vt 0.265658 0.409468
vt 0.193100 0.403974
vt 0.437096 0.388155
vt 0.501526 0.432239
vt 0.452441 0.490976
vt 0.398888 0.453757
vt 0.127325 0.385091
vt 0.130823 0.404057
vt 0.363500 0.360402
vt 0.340582 0.426505
vt 0.075025 0.418179
vt 0.127376 0.423088
vt 0.308190 0.482833
vt 0.245972 0.456982
vt 0.183468 0.437512
vt 0.405181 0.547407
vt 0.357914 0.512325
vt 0.356939 0.604898
vt 0.313045 0.569563
vt 0.165730 0.470075
vt 0.118229 0.441068
vt 0.268949 0.536411
vt 0.217369 0.502108
vt 0.181979 0.543545
vt 0.141113 0.498553
vt 0.308173 0.663646
vt 0.265804 0.626505
vt 0.105123 0.456915
vt 0.225595 0.588679
vt 0.217097 0.680698
vt 0.179277 0.636781
vt 0.088903 0.468942
vt 0.142659 0.579816
vt 0.112457 0.521634
vt 0.259931 0.721137
vt 0.212671 0.777568
vt 0.166528 0.731388
vt 0.081166 0.536925
vt 0.070730 0.475576
vt 0.129317 0.678657
vt 0.099237 0.607609
vt 0.068079 0.712994
vt 0.048929 0.622508
vt 0.048929 0.542044
vt 0.163586 0.836305
vt 0.108619 0.780710
vt 0.051449 0.475367
vt 0.732947 0.284019
vt 0.535538 0.064381
vt 0.585770 0.050882
vt 0.639427 0.065640
vt 0.703650 0.066292
vt 0.777520 0.071381
vt 0.834372 0.103526
vt 0.883930 0.148316
vt 0.581964 0.419722
vt 0.542695 0.365684
vt 0.516775 0.305737
vt 0.519568 0.231744
vt 0.525746 0.167816
vt 0.516775 0.112894
vt 0.671861 0.478812
vt 0.589141 0.415912
vt 0.730971 0.287161
vt 0.872800 0.158410
vt 0.927429 0.246811
vt 0.943147 0.343204
vt 0.916841 0.428496
vt 0.853721 0.485796
vt 0.766289 0.503754
vn 0.6050 0.5215 0.6016
vn 0.5362 0.5479 0.6420
vn 0.6301 0.7147 -0.3034
vn 0.6824 0.6529 -0.3286
vn 0.7823 0.1673 0.5999
vn 0.6758 -0.5358 0.5062
vn 0.7060 -0.6212 -0.3400
vn 0.8810 0.2091 -0.4243
vn 0.5557 0.5826 0.5931
vn 0.6218 0.7236 -0.2994
vn 0.6983 0.4103 0.5865
vn 0.7768 0.5066 -0.3741
vn 0.0000 0.8748 0.4843
vn 0.4303 0.7236 -0.5396
vn 0.5376 0.5066 -0.6741
vn 0.4361 0.7147 -0.5468
vn 0.4722 0.6529 -0.5922
vn 0.4886 -0.6212 -0.6127
vn 0.6097 0.2091 -0.7645
vn 0.1744 -0.6212 -0.7640
vn 0.2176 0.2091 -0.9534
vn 0.1685 0.6529 -0.7385
vn 0.1536 0.7236 -0.6729
vn 0.1918 0.5066 -0.8405
vn 0.1556 0.7147 -0.6819
vn -0.1556 0.7147 -0.6819
vn -0.1685 0.6529 -0.7385
vn -0.1744 -0.6212 -0.7640
vn -0.2176 0.2091 -0.9534
vn -0.1536 0.7236 -0.6729
vn -0.1918 0.5066 -0.8405
vn -0.6097 0.2091 -0.7645
vn -0.5376 0.5066 -0.6741
vn -0.4303 0.7236 -0.5396
vn -0.4361 0.7147 -0.5468
vn -0.4722 0.6529 -0.5922
vn -0.4886 -0.6212 -0.6127
vn -0.7060 -0.6212 -0.3400
vn -0.8810 0.2091 -0.4243
vn -0.6824 0.6529 -0.3286
vn -0.6218 0.7236 -0.2994
vn -0.7768 0.5066 -0.3741
vn -0.6301 0.7147 -0.3034
vn -0.6983 0.4103 0.5865
vn -0.5362 0.5479 0.6420
vn -0.6050 0.5215 0.6016
vn -0.6758 -0.5358 0.5062
vn -0.7823 0.1673 0.5999
vn -0.5557 0.5826 0.5931
vn 0.0000 -0.7070 0.7071
usemtl Limon-Mat
s 1
f 48/1/1 47/2/2 4/3/3 5/4/4
f 45/5/5 44/6/6 1/7/7 2/8/8
f 49/9/9 48/1/1 5/4/4 6/10/10
f 46/11/11 45/5/5 2/8/8 3/12/12
f 37/13/13 49/9/9 6/10/10
f 47/2/2 46/11/11 3/12/12 4/3/3
f 37/13/13 6/10/10 12/14/14
f 4/3/3 3/12/12 9/15/15 10/16/16
f 5/4/4 4/3/3 10/16/16 11/17/17
f 2/8/8 1/7/7 7/18/18 8/19/19
f 6/10/10 5/4/4 11/17/17 12/14/14
f 3/12/12 2/8/8 8/19/19 9/15/15
f 8/19/19 7/18/18 13/20/20 14/21/21
f 12/14/14 11/17/17 17/22/22 18/23/23
f 9/15/15 8/19/19 14/21/21 15/24/24
f 37/13/13 12/14/14 18/23/23
f 10/16/16 9/15/15 15/24/24 16/25/25
f 11/17/17 10/16/16 16/25/25 17/22/22
f 17/22/22 16/25/25 22/26/26 23/27/27
f 14/21/21 13/20/20 19/28/28 20/29/29
f 18/23/23 17/22/22 23/27/27 24/30/30
f 15/24/24 14/21/21 20/29/29 21/31/31
f 37/13/13 18/23/23 24/30/30
f 16/25/25 15/24/24 21/31/31 22/26/26
f 21/31/31 20/29/29 26/32/32 27/33/33
f 37/13/13 24/30/30 30/34/34
f 22/26/26 21/31/31 27/33/33 28/35/35
f 23/27/27 22/26/26 28/35/35 29/36/36
f 20/29/29 19/28/28 25/37/37 26/32/32
f 24/30/30 23/27/27 29/36/36 30/34/34
f 26/32/32 25/37/37 31/38/38 32/39/39
f 30/34/34 29/36/36 35/40/40 36/41/41
f 27/33/33 26/32/32 32/39/39 33/42/42
f 37/13/13 30/34/34 36/41/41
f 28/35/35 27/33/33 33/42/42 34/43/43
f 29/36/36 28/35/35 34/43/43 35/40/40
f 34/43/43 33/42/42 40/44/44 41/45/45
f 35/40/40 34/43/43 41/45/45 42/46/46
f 32/39/39 31/38/38 38/47/47 39/48/48
f 36/41/41 35/40/40 42/46/46 43/49/49
f 33/42/42 32/39/39 39/48/48 40/44/44
f 37/13/13 36/41/41 43/49/49
f 50/50/50 37/51/13 43/52/49 42/53/46 41/54/45 40/55/44 39/56/48 38/57/47
f 50/50/50 44/58/6 45/59/5 46/60/11 47/61/2 48/62/1 49/63/9 37/51/13
f 1/64/7 44/65/6 50/66/50 38/67/47 31/68/38 25/69/37 19/70/28 13/71/20 7/72/18
