# Blender v2.93.4 OBJ File: ''
# www.blender.org
mtllib Naranaja-1_4.mtl
o Naranaja-1_4_Sphere.002
v 0.309017 0.951057 0.000000
v 0.587785 0.809017 0.000000
v 0.809017 0.587785 0.000000
v 0.951057 0.309017 0.000000
v 1.000000 -0.000000 0.000000
v 0.951057 -0.309017 0.000000
v 0.809017 -0.587785 0.000000
v 0.587785 -0.809017 0.000000
v 0.309017 -0.951056 0.000000
v 0.267617 0.951057 0.154509
v 0.509037 0.809017 0.293893
v 0.700629 0.587785 0.404509
v 0.823639 0.309017 0.475528
v 0.866025 -0.000000 0.500000
v 0.823639 -0.309017 0.475528
v 0.700629 -0.587785 0.404509
v 0.509037 -0.809017 0.293893
v 0.267617 -0.951056 0.154509
v 0.154509 0.951057 0.267617
v 0.293893 0.809017 0.509037
v 0.404509 0.587785 0.700629
v 0.475528 0.309017 0.823639
v 0.500000 -0.000000 0.866025
v 0.475528 -0.309017 0.823639
v 0.404509 -0.587785 0.700629
v 0.293893 -0.809017 0.509037
v 0.154509 -0.951056 0.267617
v -0.000000 -1.000000 0.000000
v -0.000000 -0.951056 0.309017
v 0.000000 -0.809017 0.587785
v -0.000000 -0.587785 0.809017
v -0.000000 -0.309017 0.951057
v -0.000000 0.309017 0.951057
v -0.000000 0.587785 0.809017
v -0.000000 1.000000 0.000000
v 0.000000 0.809017 0.587786
v -0.000000 0.951057 0.309017
v 0.000000 -0.000000 1.000000
v 0.309017 -0.951056 0.000000
v 0.309017 0.951057 0.000000
v 0.587785 0.809017 0.000000
v 0.809017 0.587785 0.000000
v 0.951057 0.309017 0.000000
v 1.000000 -0.000000 0.000000
v 0.951057 -0.309017 0.000000
v 0.809017 -0.587785 0.000000
v 0.587785 -0.809017 0.000000
vt 0.378199 0.158515
vt 0.449306 0.073856
vt 0.491031 0.103675
vt 0.467015 0.187050
vt 0.699960 0.638249
vt 0.603432 0.633723
vt 0.636691 0.556096
vt 0.708314 0.592341
vt 0.433091 0.544105
vt 0.374295 0.463858
vt 0.499372 0.401049
vt 0.533943 0.459445
vt 0.342104 0.261525
vt 0.463843 0.265105
vt 0.797476 0.620074
vt 0.511908 0.601975
vt 0.579360 0.511358
vt 0.342104 0.367002
vt 0.475627 0.336345
vt 0.539945 0.021588
vt 0.645333 0.455417
vt 0.683105 0.505035
vt 0.569339 0.305882
vt 0.590100 0.357501
vt 0.533493 0.112082
vt 0.539417 0.186866
vt 0.732137 0.558316
vt 0.615036 0.406814
vt 0.552274 0.249981
vt 0.625313 0.223972
vt 0.647572 0.273485
vt 0.572352 0.104481
vt 0.712107 0.417690
vt 0.736735 0.472327
vt 0.668710 0.320831
vt 0.600686 0.169335
vt 0.765068 0.537181
vt 0.689848 0.368177
vt 0.501768 0.769492
vt 0.501768 0.692347
vt 0.477928 0.618977
vt 0.432583 0.556565
vt 0.370171 0.511220
vt 0.296802 0.487381
vt 0.219656 0.487381
vt 0.146287 0.511220
vt 0.083875 0.556565
vt 0.038530 0.618977
vt 0.014691 0.692347
vt 0.038530 0.618977
vt 0.083875 0.556565
vt 0.146287 0.511220
vt 0.219656 0.487381
vt 0.296802 0.487381
vt 0.370171 0.511220
vt 0.432583 0.556565
vt 0.477928 0.618977
vt 0.501768 0.692347
vn 0.5965 0.7865 0.1598
vn 0.3309 0.9395 0.0887
vn 0.2877 0.9432 0.1661
vn 0.5233 0.7967 0.3021
vn 0.3309 -0.9395 0.0887
vn 0.5965 -0.7865 0.1598
vn 0.5233 -0.7967 0.3021
vn 0.2877 -0.9432 0.1661
vn 0.9237 -0.2923 0.2475
vn 0.9659 0.0000 0.2588
vn 0.8660 0.0000 0.5000
vn 0.8256 -0.3017 0.4767
vn 0.7986 0.5624 0.2140
vn 0.7081 0.5758 0.4088
vn -0.5350 -0.6539 -0.5350
vn 0.7986 -0.5624 0.2140
vn 0.7081 -0.5758 0.4088
vn 0.9237 0.2923 0.2475
vn 0.8256 0.3017 0.4767
vn -0.5350 0.6539 -0.5350
vn 0.4088 -0.5758 0.7081
vn 0.3021 -0.7967 0.5233
vn 0.4767 0.3017 0.8256
vn 0.5000 0.0000 0.8660
vn 0.1661 0.9432 0.2877
vn 0.3021 0.7967 0.5233
vn 0.1661 -0.9432 0.2877
vn 0.4767 -0.3017 0.8256
vn 0.4088 0.5758 0.7081
vn -0.5914 0.4643 0.6593
vn -0.5778 0.2462 0.7781
vn -0.6403 0.7244 0.2551
vn -0.5914 -0.4643 0.6593
vn -0.6129 -0.6296 0.4775
vn -0.5732 0.0000 0.8194
vn -0.6129 0.6296 0.4775
vn -0.6403 -0.7244 0.2551
vn -0.5778 -0.2462 0.7781
vn 0.0000 0.0000 -1.0000
usemtl Naranaja-Mat
s 1
f 41/1/1 40/2/2 10/3/3 11/4/4
f 39/5/5 47/6/6 17/7/7 18/8/8
f 45/9/9 44/10/10 14/11/11 15/12/12
f 42/13/13 41/1/1 11/4/4 12/14/14
f 28/15/15 39/5/5 18/8/8
f 46/16/16 45/9/9 15/12/12 16/17/17
f 43/18/18 42/13/13 12/14/14 13/19/19
f 40/2/2 35/20/20 10/3/3
f 47/6/6 46/16/16 16/17/17 17/7/7
f 44/10/10 43/18/18 13/19/19 14/11/11
f 17/7/7 16/17/17 25/21/21 26/22/22
f 14/11/11 13/19/19 22/23/23 23/24/24
f 11/4/4 10/3/3 19/25/25 20/26/26
f 18/8/8 17/7/7 26/22/22 27/27/27
f 15/12/12 14/11/11 23/24/24 24/28/28
f 12/14/14 11/4/4 20/26/26 21/29/29
f 28/15/15 18/8/8 27/27/27
f 16/17/17 15/12/12 24/28/28 25/21/21
f 13/19/19 12/14/14 21/29/29 22/23/23
f 10/3/3 35/20/20 19/25/25
f 22/23/23 21/29/29 34/30/30 33/31/31
f 19/25/25 35/20/20 37/32/32
f 26/22/22 25/21/21 31/33/33 30/34/34
f 23/24/24 22/23/23 33/31/31 38/35/35
f 20/26/26 19/25/25 37/32/32 36/36/36
f 27/27/27 26/22/22 30/34/34 29/37/37
f 24/28/28 23/24/24 38/35/35 32/38/38
f 21/29/29 20/26/26 36/36/36 34/30/30
f 28/15/15 27/27/27 29/37/37
f 25/21/21 24/28/28 32/38/38 31/33/33
f 28/39/15 29/40/37 30/41/34 31/42/33 32/43/38 38/44/35 33/45/31 34/46/30 36/47/36 37/48/32 35/49/20
f 28/39/15 35/49/20 1/50/39 2/51/39 3/52/39 4/53/39 5/54/39 6/55/39 7/56/39 8/57/39 9/58/39
