# Blender v2.93.4 OBJ File: ''
# www.blender.org
mtllib Naranaja-1_2.mtl
o Naranaja-1_2_Sphere
v 0.309017 0.951057 0.000000
v 0.587785 0.809017 0.000000
v 0.809017 0.587785 0.000000
v 0.951057 0.309017 0.000000
v 1.000000 -0.000000 0.000000
v 0.951057 -0.309017 0.000000
v 0.809017 -0.587785 0.000000
v 0.587785 -0.809017 0.000000
v 0.309017 -0.951056 0.000000
v 0.267617 0.951057 0.154509
v 0.509037 0.809017 0.293893
v 0.700629 0.587785 0.404509
v 0.823639 0.309017 0.475528
v 0.866025 -0.000000 0.500000
v 0.823639 -0.309017 0.475528
v 0.700629 -0.587785 0.404509
v 0.509037 -0.809017 0.293893
v 0.267617 -0.951056 0.154509
v 0.154509 0.951057 0.267617
v 0.293893 0.809017 0.509037
v 0.404509 0.587785 0.700629
v 0.475528 0.309017 0.823639
v 0.500000 -0.000000 0.866025
v 0.475528 -0.309017 0.823639
v 0.404509 -0.587785 0.700629
v 0.293893 -0.809017 0.509037
v 0.154509 -0.951056 0.267617
v -0.000000 0.951057 0.309017
v -0.000000 0.809017 0.587785
v -0.000000 0.587785 0.809017
v -0.000000 0.309017 0.951057
v 0.000000 -0.000000 1.000000
v -0.000000 -0.309017 0.951057
v -0.000000 -0.587785 0.809017
v 0.000000 -0.809017 0.587785
v -0.000000 -0.951056 0.309017
v -0.154509 0.951057 0.267617
v -0.293893 0.809017 0.509037
v -0.404509 0.587785 0.700629
v -0.475528 0.309017 0.823639
v -0.500000 -0.000000 0.866025
v -0.475528 -0.309017 0.823639
v -0.404509 -0.587785 0.700629
v -0.293893 -0.809017 0.509037
v -0.154509 -0.951056 0.267617
v -0.267617 0.951057 0.154509
v -0.509037 0.809017 0.293893
v -0.700629 0.587785 0.404509
v -0.823639 0.309017 0.475528
v -0.866025 -0.000000 0.500000
v -0.823639 -0.309017 0.475528
v -0.700629 -0.587785 0.404509
v -0.509037 -0.809017 0.293893
v -0.267617 -0.951056 0.154509
v -0.309017 0.951057 0.000000
v -0.587785 0.809017 0.000000
v -0.809017 0.587785 0.000000
v -0.951057 0.309017 0.000000
v -1.000000 -0.000000 0.000000
v -0.951056 -0.309017 0.000000
v -0.809017 -0.587785 0.000000
v -0.587785 -0.809017 0.000000
v -0.309017 -0.951056 0.000000
v -0.000000 1.000000 0.000000
v 0.000000 -1.000000 0.000000
v -0.309017 0.951057 0.000000
v -0.587785 0.809017 0.000000
v -0.809017 0.587785 0.000000
v -0.951057 0.309017 0.000000
v -1.000000 -0.000000 0.000000
v -0.951056 -0.309017 0.000000
v -0.809017 -0.587785 0.000000
v -0.587785 -0.809017 0.000000
v -0.309017 -0.951056 0.000000
v -0.000000 1.000000 0.000000
v 0.000000 -1.000000 0.000000
v 0.309017 0.951057 0.000000
v 0.587785 0.809017 0.000000
v 0.809017 0.587785 0.000000
v 0.951057 0.309017 0.000000
v 1.000000 -0.000000 0.000000
v 0.951057 -0.309017 0.000000
v 0.809017 -0.587785 0.000000
v 0.587785 -0.809017 0.000000
v 0.309017 -0.951056 0.000000
vt 0.378199 0.158515
vt 0.449306 0.073856
vt 0.491031 0.103675
vt 0.467015 0.187050
vt 0.699960 0.638249
vt 0.603432 0.633723
vt 0.636691 0.556096
vt 0.708314 0.592341
vt 0.433091 0.544105
vt 0.374295 0.463858
vt 0.499372 0.401049
vt 0.533943 0.459445
vt 0.342104 0.261525
vt 0.463843 0.265105
vt 0.797476 0.620074
vt 0.511908 0.601975
vt 0.579360 0.511358
vt 0.342104 0.367002
vt 0.475627 0.336345
vt 0.539945 0.021588
vt 0.645333 0.455417
vt 0.683105 0.505035
vt 0.569339 0.305882
vt 0.590100 0.357501
vt 0.533493 0.112082
vt 0.539417 0.186866
vt 0.732137 0.558316
vt 0.615036 0.406814
vt 0.552274 0.249981
vt 0.625313 0.223972
vt 0.647572 0.273485
vt 0.572352 0.104481
vt 0.712107 0.417690
vt 0.736735 0.472327
vt 0.668710 0.320831
vt 0.600686 0.169335
vt 0.765068 0.537181
vt 0.689848 0.368177
vt 0.768081 0.335780
vt 0.785146 0.391681
vt 0.692088 0.186245
vt 0.722385 0.234847
vt 0.605283 0.083346
vt 0.798003 0.454796
vt 0.747321 0.284161
vt 0.654315 0.136627
vt 0.803927 0.529580
vt 0.700730 0.085565
vt 0.758061 0.130304
vt 0.846390 0.537987
vt 0.861794 0.305317
vt 0.873577 0.376557
vt 0.803478 0.182217
vt 0.629106 0.049321
vt 0.870405 0.454612
vt 0.838048 0.240613
vt 0.959221 0.483147
vt 0.888114 0.567806
vt 0.963126 0.177804
vt 0.995316 0.274660
vt 0.733989 0.007939
vt 0.825513 0.039687
vt 0.995316 0.380137
vt 0.904329 0.097557
vt 0.637461 0.003412
vt 0.038530 0.842862
vt 0.014691 0.769492
vt 0.014691 0.692347
vt 0.501768 0.769492
vt 0.477928 0.842862
vt 0.432583 0.905274
vt 0.370171 0.950619
vt 0.296802 0.974458
vt 0.219656 0.974458
vt 0.146287 0.950619
vt 0.083875 0.905274
vt 0.038530 0.618977
vt 0.083875 0.556565
vt 0.146287 0.511220
vt 0.219656 0.487381
vt 0.296802 0.487381
vt 0.370171 0.511220
vt 0.432583 0.556565
vt 0.477928 0.618977
vt 0.501768 0.692347
vn 0.5965 0.7865 0.1598
vn 0.3309 0.9395 0.0887
vn 0.2877 0.9432 0.1661
vn 0.5233 0.7967 0.3021
vn 0.3309 -0.9395 0.0887
vn 0.5965 -0.7865 0.1598
vn 0.5233 -0.7967 0.3021
vn 0.2877 -0.9432 0.1661
vn 0.9237 -0.2923 0.2475
vn 0.9659 0.0000 0.2588
vn 0.8660 0.0000 0.5000
vn 0.8256 -0.3017 0.4767
vn 0.7986 0.5624 0.2140
vn 0.7081 0.5758 0.4088
vn 0.0000 -0.9944 0.1050
vn 0.7986 -0.5624 0.2140
vn 0.7081 -0.5758 0.4088
vn 0.9237 0.2923 0.2475
vn 0.8256 0.3017 0.4767
vn 0.0000 0.9944 0.1050
vn 0.4088 -0.5758 0.7081
vn 0.3021 -0.7967 0.5233
vn 0.4767 0.3017 0.8256
vn 0.5000 0.0000 0.8660
vn 0.1661 0.9432 0.2877
vn 0.3021 0.7967 0.5233
vn 0.1661 -0.9432 0.2877
vn 0.4767 -0.3017 0.8256
vn 0.4088 0.5758 0.7081
vn 0.0000 0.5758 0.8176
vn 0.0000 0.3017 0.9534
vn 0.0000 0.9432 0.3322
vn 0.0000 -0.5758 0.8176
vn 0.0000 -0.7967 0.6043
vn 0.0000 0.0000 1.0000
vn 0.0000 0.7967 0.6043
vn 0.0000 -0.9432 0.3322
vn 0.0000 -0.3017 0.9534
vn -0.4767 -0.3017 0.8256
vn -0.4088 -0.5758 0.7081
vn -0.4088 0.5758 0.7081
vn -0.4767 0.3017 0.8256
vn -0.1661 0.9432 0.2877
vn -0.3021 -0.7967 0.5233
vn -0.5000 0.0000 0.8660
vn -0.3021 0.7967 0.5233
vn -0.1661 -0.9432 0.2877
vn -0.5233 0.7967 0.3021
vn -0.7081 0.5758 0.4088
vn -0.2877 -0.9432 0.1661
vn -0.8256 -0.3017 0.4767
vn -0.7081 -0.5758 0.4088
vn -0.8256 0.3017 0.4767
vn -0.2877 0.9432 0.1661
vn -0.5233 -0.7967 0.3021
vn -0.8660 0.0000 0.5000
vn -0.5965 -0.7865 0.1598
vn -0.3309 -0.9395 0.0887
vn -0.9659 0.0000 0.2588
vn -0.9237 -0.2923 0.2475
vn -0.5965 0.7865 0.1598
vn -0.7986 0.5624 0.2140
vn -0.7986 -0.5624 0.2140
vn -0.9237 0.2923 0.2475
vn -0.3309 0.9395 0.0887
vn 0.0000 0.0000 -1.0000
usemtl Naranaja-Mat
s 1
f 78/1/1 77/2/2 10/3/3 11/4/4
f 85/5/5 84/6/6 17/7/7 18/8/8
f 82/9/9 81/10/10 14/11/11 15/12/12
f 79/13/13 78/1/1 11/4/4 12/14/14
f 65/15/15 85/5/5 18/8/8
f 83/16/16 82/9/9 15/12/12 16/17/17
f 80/18/18 79/13/13 12/14/14 13/19/19
f 77/2/2 64/20/20 10/3/3
f 84/6/6 83/16/16 16/17/17 17/7/7
f 81/10/10 80/18/18 13/19/19 14/11/11
f 17/7/7 16/17/17 25/21/21 26/22/22
f 14/11/11 13/19/19 22/23/23 23/24/24
f 11/4/4 10/3/3 19/25/25 20/26/26
f 18/8/8 17/7/7 26/22/22 27/27/27
f 15/12/12 14/11/11 23/24/24 24/28/28
f 12/14/14 11/4/4 20/26/26 21/29/29
f 65/15/15 18/8/8 27/27/27
f 16/17/17 15/12/12 24/28/28 25/21/21
f 13/19/19 12/14/14 21/29/29 22/23/23
f 10/3/3 64/20/20 19/25/25
f 22/23/23 21/29/29 30/30/30 31/31/31
f 19/25/25 64/20/20 28/32/32
f 26/22/22 25/21/21 34/33/33 35/34/34
f 23/24/24 22/23/23 31/31/31 32/35/35
f 20/26/26 19/25/25 28/32/32 29/36/36
f 27/27/27 26/22/22 35/34/34 36/37/37
f 24/28/28 23/24/24 32/35/35 33/38/38
f 21/29/29 20/26/26 29/36/36 30/30/30
f 65/15/15 27/27/27 36/37/37
f 25/21/21 24/28/28 33/38/38 34/33/33
f 34/33/33 33/38/38 42/39/39 43/40/40
f 31/31/31 30/30/30 39/41/41 40/42/42
f 28/32/32 64/20/20 37/43/43
f 35/34/34 34/33/33 43/40/40 44/44/44
f 32/35/35 31/31/31 40/42/42 41/45/45
f 29/36/36 28/32/32 37/43/43 38/46/46
f 36/37/37 35/34/34 44/44/44 45/47/47
f 33/38/38 32/35/35 41/45/45 42/39/39
f 30/30/30 29/36/36 38/46/46 39/41/41
f 65/15/15 36/37/37 45/47/47
f 39/41/41 38/46/46 47/48/48 48/49/49
f 65/15/15 45/47/47 54/50/50
f 43/40/40 42/39/39 51/51/51 52/52/52
f 40/42/42 39/41/41 48/49/49 49/53/53
f 37/43/43 64/20/20 46/54/54
f 44/44/44 43/40/40 52/52/52 53/55/55
f 41/45/45 40/42/42 49/53/53 50/56/56
f 38/46/46 37/43/43 46/54/54 47/48/48
f 45/47/47 44/44/44 53/55/55 54/50/50
f 42/39/39 41/45/45 50/56/56 51/51/51
f 54/50/50 53/55/55 73/57/57 74/58/58
f 51/51/51 50/56/56 70/59/59 71/60/60
f 48/49/49 47/48/48 67/61/61 68/62/62
f 65/15/15 54/50/50 74/58/58
f 52/52/52 51/51/51 71/60/60 72/63/63
f 49/53/53 48/49/49 68/62/62 69/64/64
f 46/54/54 64/20/20 66/65/65
f 53/55/55 52/52/52 72/63/63 73/57/57
f 50/56/56 49/53/53 69/64/64 70/59/59
f 47/48/48 46/54/54 66/65/65 67/61/61
f 56/66/66 55/67/66 75/68/66 76/69/66 63/70/66 62/71/66 61/72/66 60/73/66 59/74/66 58/75/66 57/76/66
f 76/69/66 75/68/66 1/77/66 2/78/66 3/79/66 4/80/66 5/81/66 6/82/66 7/83/66 8/84/66 9/85/66
