# Blender v2.93.1 OBJ File: ''
# www.blender.org
mtllib naranja-1-4.mtl
o Naranaja-1_4_Sphere.001
v 0.587785 -0.000000 0.809017
v 0.309017 -0.000000 0.951057
v 0.267617 -0.154509 0.951057
v 0.509037 -0.293893 0.809017
v 0.309017 0.000000 -0.951056
v 0.587785 0.000000 -0.809017
v 0.509037 -0.293893 -0.809017
v 0.267617 -0.154509 -0.951056
v 0.951057 0.000000 -0.309017
v 1.000000 0.000000 0.000000
v 0.866025 -0.500000 -0.000000
v 0.823639 -0.475528 -0.309017
v 0.809017 -0.000000 0.587785
v 0.700629 -0.404509 0.587785
v 0.000000 0.000000 -1.000000
v 0.809017 0.000000 -0.587785
v 0.700629 -0.404509 -0.587785
v 0.951057 -0.000000 0.309017
v 0.823639 -0.475528 0.309017
v 0.000000 -0.000000 1.000000
v 0.404509 -0.700629 -0.587785
v 0.293893 -0.509037 -0.809017
v 0.475528 -0.823639 0.309017
v 0.500000 -0.866025 -0.000000
v 0.154509 -0.267617 0.951057
v 0.293893 -0.509037 0.809017
v 0.154509 -0.267617 -0.951056
v 0.475528 -0.823639 -0.309017
v 0.404509 -0.700629 0.587785
v 0.000000 -0.809017 0.587785
v 0.000000 -0.951057 0.309017
v 0.000000 -0.309017 0.951057
v 0.000000 -0.809017 -0.587785
v 0.000000 -0.587785 -0.809017
v 0.000000 -1.000000 -0.000000
v 0.000000 -0.587786 0.809017
v 0.000000 -0.309017 -0.951056
v 0.000000 -0.951057 -0.309017
v 0.309017 -0.000000 0.951057
v 0.587785 -0.000000 0.809017
v 0.809017 -0.000000 0.587785
v 0.951057 -0.000000 0.309017
v 1.000000 0.000000 0.000000
v 0.951057 0.000000 -0.309017
v 0.809017 0.000000 -0.587785
v 0.587785 0.000000 -0.809017
v 0.309017 0.000000 -0.951056
vt 0.378199 0.158515
vt 0.449306 0.073856
vt 0.491031 0.103675
vt 0.467015 0.187050
vt 0.699960 0.638249
vt 0.603432 0.633723
vt 0.636691 0.556096
vt 0.708314 0.592341
vt 0.433091 0.544105
vt 0.374295 0.463858
vt 0.499372 0.401049
vt 0.533943 0.459445
vt 0.342104 0.261525
vt 0.463843 0.265105
vt 0.797476 0.620074
vt 0.511908 0.601975
vt 0.579360 0.511358
vt 0.342104 0.367002
vt 0.475627 0.336345
vt 0.539945 0.021588
vt 0.645333 0.455417
vt 0.683105 0.505035
vt 0.569339 0.305882
vt 0.590100 0.357501
vt 0.533493 0.112082
vt 0.539417 0.186866
vt 0.732137 0.558316
vt 0.615036 0.406814
vt 0.552274 0.249981
vt 0.625313 0.223972
vt 0.647572 0.273485
vt 0.572352 0.104481
vt 0.712107 0.417690
vt 0.736735 0.472327
vt 0.668710 0.320831
vt 0.600686 0.169335
vt 0.765068 0.537181
vt 0.689848 0.368177
vt 0.501768 0.769492
vt 0.501768 0.692347
vt 0.477928 0.618977
vt 0.432583 0.556565
vt 0.370171 0.511220
vt 0.296802 0.487381
vt 0.219656 0.487381
vt 0.146287 0.511220
vt 0.083875 0.556565
vt 0.038530 0.618977
vt 0.014691 0.692347
vt 0.038530 0.618977
vt 0.083875 0.556565
vt 0.146287 0.511220
vt 0.219656 0.487381
vt 0.296802 0.487381
vt 0.370171 0.511220
vt 0.432583 0.556565
vt 0.477928 0.618977
vt 0.501768 0.692347
vn 0.5965 -0.1598 0.7865
vn 0.3309 -0.0887 0.9395
vn 0.2877 -0.1661 0.9432
vn 0.5233 -0.3021 0.7968
vn 0.3309 -0.0887 -0.9395
vn 0.5965 -0.1598 -0.7865
vn 0.5233 -0.3021 -0.7968
vn 0.2877 -0.1661 -0.9432
vn 0.9237 -0.2475 -0.2923
vn 0.9659 -0.2588 -0.0000
vn 0.8660 -0.5000 -0.0000
vn 0.8257 -0.4767 -0.3017
vn 0.7987 -0.2140 0.5624
vn 0.7081 -0.4088 0.5758
vn -0.5350 0.5350 -0.6539
vn 0.7987 -0.2140 -0.5624
vn 0.7081 -0.4088 -0.5758
vn 0.9237 -0.2475 0.2923
vn 0.8257 -0.4767 0.3017
vn -0.5350 0.5350 0.6539
vn 0.4088 -0.7081 -0.5758
vn 0.3021 -0.5233 -0.7968
vn 0.4767 -0.8257 0.3017
vn 0.5000 -0.8660 -0.0000
vn 0.1661 -0.2877 0.9432
vn 0.3021 -0.5233 0.7968
vn 0.1661 -0.2877 -0.9432
vn 0.4767 -0.8257 -0.3017
vn 0.4088 -0.7081 0.5758
vn -0.5914 -0.6593 0.4643
vn -0.5779 -0.7781 0.2462
vn -0.6404 -0.2551 0.7245
vn -0.5914 -0.6593 -0.4643
vn -0.6129 -0.4775 -0.6296
vn -0.5732 -0.8194 -0.0000
vn -0.6129 -0.4775 0.6296
vn -0.6404 -0.2551 -0.7245
vn -0.5779 -0.7781 -0.2462
vn 0.0000 1.0000 0.0000
g Naranaja-1_4_Sphere.001_Naranaja-1_4_Sphere.001_Naranaja-Mat.003
usemtl Naranaja-Mat.003
s 1
f 1/1/1 2/2/2 3/3/3 4/4/4
f 5/5/5 6/6/6 7/7/7 8/8/8
f 9/9/9 10/10/10 11/11/11 12/12/12
f 13/13/13 1/1/1 4/4/4 14/14/14
f 15/15/15 5/5/5 8/8/8
f 16/16/16 9/9/9 12/12/12 17/17/17
f 18/18/18 13/13/13 14/14/14 19/19/19
f 2/2/2 20/20/20 3/3/3
f 6/6/6 16/16/16 17/17/17 7/7/7
f 10/10/10 18/18/18 19/19/19 11/11/11
f 7/7/7 17/17/17 21/21/21 22/22/22
f 11/11/11 19/19/19 23/23/23 24/24/24
f 4/4/4 3/3/3 25/25/25 26/26/26
f 8/8/8 7/7/7 22/22/22 27/27/27
f 12/12/12 11/11/11 24/24/24 28/28/28
f 14/14/14 4/4/4 26/26/26 29/29/29
f 15/15/15 8/8/8 27/27/27
f 17/17/17 12/12/12 28/28/28 21/21/21
f 19/19/19 14/14/14 29/29/29 23/23/23
f 3/3/3 20/20/20 25/25/25
f 23/23/23 29/29/29 30/30/30 31/31/31
f 25/25/25 20/20/20 32/32/32
f 22/22/22 21/21/21 33/33/33 34/34/34
f 24/24/24 23/23/23 31/31/31 35/35/35
f 26/26/26 25/25/25 32/32/32 36/36/36
f 27/27/27 22/22/22 34/34/34 37/37/37
f 28/28/28 24/24/24 35/35/35 38/38/38
f 29/29/29 26/26/26 36/36/36 30/30/30
f 15/15/15 27/27/27 37/37/37
f 21/21/21 28/28/28 38/38/38 33/33/33
f 15/39/15 37/40/37 34/41/34 33/42/33 38/43/38 35/44/35 31/45/31 30/46/30 36/47/36 32/48/32 20/49/20
f 15/39/15 20/49/20 39/50/39 40/51/39 41/52/39 42/53/39 43/54/39 44/55/39 45/56/39 46/57/39 47/58/39
