# Blender v2.93.4 OBJ File: 'cebolla.blend'
# www.blender.org
mtllib Cebolla-1_4AA.mtl
o Cebolla-1_4AA_Cebolla-1/2_Sphere.004
v 0.000000 -1.122047 0.000001
v -0.309953 -1.100890 -0.128386
v -1.175833 -0.624844 0.000000
v -1.086328 -0.624844 -0.449971
v -0.874241 -0.854631 -0.362122
v -1.377982 0.001987 0.000000
v -1.273089 0.001987 -0.527330
v -0.608158 -1.013792 -0.251907
v -1.224489 -0.333785 -0.507199
v -0.937183 -0.333785 -0.937183
v -0.465464 -1.013792 -0.465463
v -0.237228 -1.100890 -0.237227
v -0.831439 -0.624844 -0.831439
v -0.669115 -0.854631 -0.669115
v -0.527331 0.001987 -1.273089
v -0.362123 -0.854631 -0.874241
v -0.251907 -1.013792 -0.608158
v -0.507200 -0.333785 -1.224488
v -0.128387 -1.100890 -0.309952
v -0.449971 -0.624844 -1.086327
v -0.000000 -0.333785 -1.325377
v -0.000000 -0.624844 -1.175832
v -0.000000 -1.100890 -0.335490
v -0.000000 -0.854631 -0.946271
v -0.000000 0.001987 -1.377981
v -0.000000 -1.013792 -0.658265
v 0.527331 0.001987 -1.273089
v 0.507200 -0.333785 -1.224488
v 0.251907 -1.013792 -0.608158
v 0.128387 -1.100890 -0.309952
v 0.449972 -0.624844 -1.086327
v 0.362123 -0.854631 -0.874241
v 0.831439 -0.624844 -0.831438
v 0.669115 -0.854631 -0.669115
v 0.465464 -1.013792 -0.465463
v 0.937183 -0.333785 -0.937182
v 0.237228 -1.100890 -0.237227
v 1.224489 -0.333785 -0.507199
v 1.086327 -0.624844 -0.449971
v 0.309953 -1.100890 -0.128386
v 0.874241 -0.854631 -0.362122
v 1.273089 0.001987 -0.527330
v 0.608158 -1.013792 -0.251907
v 0.946272 -0.854631 -0.000000
v 0.658266 -1.013792 -0.000000
v 1.325377 -0.333785 -0.000000
v 0.335491 -1.100890 0.000000
v -1.325377 -0.333785 0.000000
v -0.946272 -0.854631 0.000001
v -0.658266 -1.013792 0.000001
v -0.335491 -1.100890 0.000001
v 1.175832 -0.624844 -0.000000
v 0.974380 0.001987 -0.974380
v -0.974380 0.001987 -0.974380
v 1.377982 0.001987 -0.000000
vt 0.004296 0.701792
vt 0.005903 0.625703
vt 0.033066 0.634112
vt 0.049214 0.482299
vt 0.093697 0.422013
vt 0.153161 0.494340
vt 0.108372 0.530314
vt 0.019890 0.551454
vt 0.067922 0.576575
vt 0.153027 0.373355
vt 0.227515 0.339654
vt 0.257873 0.448270
vt 0.202487 0.467181
vt 0.277101 0.529822
vt 0.231350 0.541674
vt 0.100847 0.610104
vt 0.053923 0.650300
vt 0.188207 0.558095
vt 0.145300 0.580213
vt 0.167791 0.629804
vt 0.121457 0.647424
vt 0.290556 0.598588
vt 0.249488 0.606550
vt 0.067603 0.671213
vt 0.209511 0.616652
vt 0.261177 0.667483
vt 0.221822 0.673207
vt 0.073957 0.694708
vt 0.179795 0.679563
vt 0.131732 0.686836
vt 0.300905 0.661930
vt 0.309667 0.725098
vt 0.268308 0.728993
vt 0.132302 0.727896
vt 0.072840 0.719181
vt 0.227015 0.730978
vt 0.182754 0.730964
vt 0.224987 0.793774
vt 0.175973 0.786086
vt 0.122270 0.770520
vt 0.318053 0.793343
vt 0.271465 0.795963
vt 0.063844 0.743074
vt 0.270037 0.875539
vt 0.213231 0.867113
vt 0.046326 0.764321
vt 0.155963 0.847614
vt 0.098822 0.814149
vt 0.327605 0.874026
vt 0.113728 0.918464
vt 0.056482 0.856097
vt 0.340971 0.981342
vt 0.260580 0.981694
vt 0.019811 0.779687
vt 0.183698 0.960636
vt 0.676729 0.568671
vt 0.655247 0.062181
vt 0.717365 0.069232
vt 0.772021 0.094446
vt 0.816041 0.134844
vt 0.847536 0.186533
vt 0.866059 0.245173
vt 0.872562 0.306664
vt 0.871289 0.368486
vt 0.857798 0.428484
vt 0.830793 0.482654
vt 0.790352 0.526634
vt 0.738027 0.556386
vt 0.032864 0.132760
vt 0.016746 0.045320
vt 0.472458 0.051729
vt 0.453887 0.138682
vt 0.403454 0.211909
vt 0.328838 0.260262
vt 0.241397 0.276380
vt 0.154444 0.257810
vt 0.081217 0.207377
vn -0.0000 -0.9992 -0.0412
vn -0.1746 -0.9840 -0.0347
vn -0.1614 -0.9846 -0.0668
vn -0.6079 -0.7847 -0.1209
vn -0.8041 -0.5725 -0.1600
vn -0.7526 -0.5800 -0.3117
vn -0.5658 -0.7905 -0.2344
vn -0.3865 -0.9191 -0.0769
vn -0.3581 -0.9218 -0.1483
vn -0.9360 -0.2988 -0.1862
vn -0.7253 0.3942 0.5644
vn -0.8204 0.4599 -0.3398
vn -0.8801 -0.3042 -0.3646
vn -0.6279 0.4599 -0.6279
vn -0.6736 -0.3042 -0.6736
vn -0.2741 -0.9218 -0.2741
vn -0.1235 -0.9846 -0.1235
vn -0.5760 -0.5800 -0.5760
vn -0.4330 -0.7905 -0.4330
vn -0.2344 -0.7905 -0.5658
vn -0.1483 -0.9218 -0.3581
vn -0.3398 0.4599 -0.8204
vn -0.3646 -0.3042 -0.8801
vn -0.0668 -0.9846 -0.1614
vn -0.3117 -0.5800 -0.7526
vn -0.0000 -0.3042 -0.9526
vn -0.0000 -0.5800 -0.8146
vn -0.0000 -0.9846 -0.1747
vn -0.0000 -0.7905 -0.6124
vn -0.0000 -0.9218 -0.3876
vn -0.0000 0.4599 -0.8880
vn 0.3398 0.4599 -0.8204
vn 0.3646 -0.3042 -0.8801
vn 0.1483 -0.9218 -0.3581
vn 0.0668 -0.9846 -0.1614
vn 0.3117 -0.5800 -0.7526
vn 0.2344 -0.7905 -0.5658
vn 0.5760 -0.5800 -0.5760
vn 0.4330 -0.7905 -0.4330
vn 0.2741 -0.9218 -0.2741
vn 0.6279 0.4599 -0.6279
vn 0.6736 -0.3042 -0.6736
vn 0.1235 -0.9846 -0.1235
vn 0.8801 -0.3042 -0.3646
vn 0.7526 -0.5800 -0.3117
vn 0.1614 -0.9846 -0.0668
vn 0.5658 -0.7905 -0.2344
vn 0.3581 -0.9218 -0.1483
vn 0.8204 0.4599 -0.3398
vn 0.6079 -0.7847 -0.1209
vn 0.3865 -0.9191 -0.0769
vn 0.7060 0.4591 0.5393
vn 0.9360 -0.2988 -0.1862
vn 0.1746 -0.9840 -0.0347
vn 0.8041 -0.5725 -0.1600
vn 0.0000 0.0000 1.0000
usemtl Onion
s 1
f 1/1/1 51/2/2 2/3/3
f 49/4/4 3/5/5 4/6/6 5/7/7
f 50/8/8 49/4/4 5/7/7 8/9/9
f 48/10/10 6/11/11 7/12/12 9/13/13
f 51/2/2 50/8/8 8/9/9 2/3/3
f 3/5/5 48/10/10 9/13/13 4/6/6
f 9/13/13 7/12/12 54/14/14 10/15/15
f 2/3/3 8/9/9 11/16/16 12/17/17
f 4/6/6 9/13/13 10/15/15 13/18/18
f 1/1/1 2/3/3 12/17/17
f 5/7/7 4/6/6 13/18/18 14/19/19
f 8/9/9 5/7/7 14/19/19 11/16/16
f 11/16/16 14/19/19 16/20/20 17/21/21
f 10/15/15 54/14/14 15/22/22 18/23/23
f 12/17/17 11/16/16 17/21/21 19/24/24
f 13/18/18 10/15/15 18/23/23 20/25/25
f 1/1/1 12/17/17 19/24/24
f 14/19/19 13/18/18 20/25/25 16/20/20
f 20/25/25 18/23/23 21/26/26 22/27/27
f 1/1/1 19/24/24 23/28/28
f 16/20/20 20/25/25 22/27/27 24/29/29
f 17/21/21 16/20/20 24/29/29 26/30/30
f 18/23/23 15/22/22 25/31/31 21/26/26
f 19/24/24 17/21/21 26/30/30 23/28/28
f 21/26/26 25/31/31 27/32/32 28/33/33
f 23/28/28 26/30/30 29/34/34 30/35/35
f 22/27/27 21/26/26 28/33/33 31/36/36
f 1/1/1 23/28/28 30/35/35
f 24/29/29 22/27/27 31/36/36 32/37/37
f 26/30/30 24/29/29 32/37/37 29/34/34
f 32/37/37 31/36/36 33/38/38 34/39/39
f 29/34/34 32/37/37 34/39/39 35/40/40
f 28/33/33 27/32/32 53/41/41 36/42/42
f 30/35/35 29/34/34 35/40/40 37/43/43
f 31/36/36 28/33/33 36/42/42 33/38/38
f 1/1/1 30/35/35 37/43/43
f 33/38/38 36/42/42 38/44/44 39/45/45
f 1/1/1 37/43/43 40/46/46
f 34/39/39 33/38/38 39/45/45 41/47/47
f 35/40/40 34/39/39 41/47/47 43/48/48
f 36/42/42 53/41/41 42/49/49 38/44/44
f 37/43/43 35/40/40 43/48/48 40/46/46
f 43/48/48 41/47/47 44/50/50 45/51/51
f 38/44/44 42/49/49 55/52/52 46/53/53
f 40/46/46 43/48/48 45/51/51 47/54/54
f 39/45/45 38/44/44 46/53/53 52/55/55
f 1/1/1 40/46/46 47/54/54
f 41/47/47 39/45/45 52/55/55 44/50/50
f 55/56/52 6/57/11 48/58/56 3/59/56 49/60/56 50/61/56 51/62/56 1/63/56 47/64/56 45/65/56 44/66/56 52/67/56 46/68/56
f 7/69/12 6/70/11 55/71/52 42/72/49 53/73/41 27/74/32 25/75/31 15/76/22 54/77/14
