# Blender v2.93.1 OBJ File: ''
# www.blender.org
mtllib manzana-1-4.mtl
o Manzana-1_2_Sphere.004
v 0.125035 -1.546002 0.301862
v 0.231747 -1.614038 0.559489
v 0.000000 -1.614038 0.605586
v 0.000000 -1.546002 0.326733
v 0.000000 -1.503655 -1.024907
v 0.000000 -1.322130 -1.201392
v 0.459753 -1.322130 -1.109941
v 0.392216 -1.503655 -0.946891
v 0.000000 -1.546002 -0.326732
v 0.000000 -1.614038 -0.605585
v 0.231748 -1.614038 -0.559488
v 0.125035 -1.546002 -0.301861
v 0.000001 -0.396347 -1.659963
v 0.635241 -0.396347 -1.533606
v 0.849513 -1.322130 -0.849512
v 0.724720 -1.503655 -0.724719
v 0.000001 -0.849513 -1.471398
v 0.563081 -0.849513 -1.359395
v 0.000000 -1.443875 -0.000000
v 1.040437 -0.849513 -1.040435
v 0.428214 -1.614038 -0.428213
v 0.231035 -1.546002 -0.231034
v 1.173772 -0.396347 -1.173771
v 1.109941 -1.322130 -0.459752
v 0.946891 -1.503655 -0.392215
v 1.201392 -1.322130 0.000001
v 1.024908 -1.503655 0.000001
v 1.533607 -0.396347 -0.635239
v 1.359396 -0.849513 -0.563079
v 0.301862 -1.546002 -0.125035
v 0.559488 -1.614038 -0.231747
v 0.605586 -1.614038 0.000001
v 0.326733 -1.546002 -0.000000
v 1.659963 -0.396347 0.000001
v 1.109941 -1.322130 0.459754
v 0.946891 -1.503655 0.392216
v 1.471399 -0.849513 0.000001
v 0.301862 -1.546002 0.125036
v 1.359395 -0.849513 0.563081
v 0.559488 -1.614038 0.231748
v 1.533606 -0.396347 0.635242
v 0.849512 -1.322130 0.849513
v 0.724719 -1.503655 0.724720
v 0.459752 -1.322130 1.109942
v 0.392215 -1.503655 0.946892
v 1.173771 -0.396347 1.173772
v 1.040435 -0.849513 1.040437
v 0.231035 -1.546002 0.231035
v 0.428214 -1.614038 0.428214
v 0.635240 -0.396347 1.533607
v 0.563079 -0.849513 1.359396
v 0.000000 -0.849513 1.471399
v 0.000000 -1.322130 1.201393
v 0.000000 -0.396347 1.659964
v 0.000000 -1.610712 -0.829440
v 0.317413 -1.610712 -0.766302
v 0.586503 -1.610712 -0.586502
v 0.766303 -1.610712 -0.317412
v 0.829440 -1.610712 0.000001
v 0.766303 -1.610712 0.317414
v 0.586502 -1.610712 0.586503
v 0.317413 -1.610712 0.766303
v 0.000000 -1.610712 0.829441
v 0.000000 -1.503655 1.024908
v 0.000001 0.000000 -1.764898
v 0.675398 0.000000 -1.630553
v 1.247972 0.000000 -1.247971
v 1.630554 0.000000 -0.675396
v 1.764898 0.000000 0.000001
v 1.630553 0.000000 0.675399
v 1.247971 0.000000 1.247973
v 0.675397 0.000000 1.630554
v 0.000000 0.000000 1.764899
v 0.000001 0.000000 -0.000000
vt 0.812906 0.429442
vt 0.765592 0.416916
vt 0.711495 0.394406
vt 0.655076 0.362174
vt 0.633407 0.341106
vt 0.620627 0.317772
vt 0.620229 0.291049
vt 0.628351 0.257761
vt 0.640543 0.218757
vt 0.812906 0.218757
vt 0.628351 0.179753
vt 0.620229 0.146465
vt 0.620626 0.119742
vt 0.633406 0.096408
vt 0.655076 0.075341
vt 0.711495 0.043108
vt 0.765592 0.020598
vt 0.812906 0.008071
vt 0.125000 0.594443
vt 0.125000 0.568539
vt 0.125000 0.551230
vt 0.125000 0.545152
vt 0.125000 0.625000
vt 0.125000 0.704848
vt 0.125000 0.698770
vt 0.125000 0.681461
vt 0.125000 0.655557
vt 0.125000 0.625000
vt 0.402387 0.035768
vt 0.357722 0.042709
vt 0.356133 0.004637
vt 0.404185 0.014991
vt 0.582345 0.157330
vt 0.599652 0.193660
vt 0.533620 0.210679
vt 0.527687 0.177831
vt 0.502973 0.066424
vt 0.539263 0.097676
vt 0.507991 0.118373
vt 0.487473 0.079807
vt 0.511139 0.391941
vt 0.527149 0.343372
vt 0.620229 0.359711
vt 0.604803 0.425367
vt 0.476495 0.212193
vt 0.477935 0.182952
vt 0.620229 0.279533
vt 0.536010 0.281163
vt 0.457314 0.034265
vt 0.467873 0.272050
vt 0.475665 0.126942
vt 0.469228 0.086426
vt 0.439003 0.362622
vt 0.454434 0.323208
vt 0.426273 0.203315
vt 0.433172 0.177104
vt 0.381036 0.186249
vt 0.392727 0.162428
vt 0.393122 0.301120
vt 0.409771 0.256220
vt 0.450574 0.086623
vt 0.444546 0.125735
vt 0.377918 0.335941
vt 0.415928 0.116223
vt 0.433181 0.080973
vt 0.337374 0.276923
vt 0.321626 0.310172
vt 0.339310 0.161162
vt 0.356078 0.139369
vt 0.357379 0.234908
vt 0.418424 0.070097
vt 0.307451 0.207532
vt 0.390846 0.099121
vt 0.282867 0.249365
vt 0.265502 0.283576
vt 0.300307 0.126493
vt 0.323357 0.106924
vt 0.264405 0.078570
vt 0.296058 0.062511
vt 0.225607 0.216075
vt 0.257320 0.171837
vt 0.407661 0.054694
vt 0.370667 0.074599
vt 0.204985 0.254068
vt 0.134064 0.218435
vt 0.160945 0.172720
vt 0.204619 0.123238
vt 0.147646 0.053359
vt 0.234425 0.010260
vt 0.042926 0.169891
vt 0.082762 0.110585
vt 0.563400 0.126589
vt 0.519479 0.148561
vt 0.477599 0.155994
vt 0.438880 0.152606
vt 0.403674 0.140315
vt 0.372282 0.119745
vt 0.345554 0.090458
vt 0.325683 0.051139
vt 0.317916 0.000000
vt 0.278512 0.000641
vn -1.0000 0.0000 -0.0000
vn -0.0000 1.0000 -0.0000
vn -0.1011 -0.9645 -0.2440
vn -0.0369 -0.9954 -0.0890
vn -0.0192 -0.9952 -0.0963
vn -0.0525 -0.9632 -0.2638
vn 0.1218 -0.7812 -0.6123
vn 0.1580 -0.5865 -0.7944
vn 0.3079 -0.5939 -0.7433
vn 0.2361 -0.7870 -0.5699
vn -0.0525 -0.9632 0.2638
vn -0.0192 -0.9952 0.0963
vn -0.0369 -0.9954 0.0890
vn -0.1011 -0.9645 0.2440
vn 0.3699 -0.2559 -0.8931
vn 0.3628 -0.3183 -0.8758
vn 0.1853 -0.3128 -0.9316
vn 0.1888 -0.2513 -0.9493
vn 0.5689 -0.5939 -0.5689
vn 0.4362 -0.7870 -0.4362
vn 0.1760 -0.4311 -0.8850
vn 0.3440 -0.4379 -0.8306
vn -0.2001 -0.9798 0.0000
vn 0.6357 -0.4379 -0.6357
vn -0.0681 -0.9954 0.0681
vn -0.1868 -0.9645 0.1868
vn 0.6836 -0.2559 -0.6836
vn 0.6703 -0.3183 -0.6703
vn 0.7433 -0.5939 -0.3079
vn 0.5699 -0.7870 -0.2361
vn 0.8045 -0.5939 0.0000
vn 0.6169 -0.7870 0.0000
vn 0.8758 -0.3183 -0.3628
vn 0.8306 -0.4379 -0.3440
vn -0.2440 -0.9645 0.1011
vn -0.0890 -0.9954 0.0369
vn 0.8931 -0.2559 -0.3699
vn -0.0963 -0.9954 0.0000
vn -0.2641 -0.9645 0.0000
vn 0.9480 -0.3183 0.0000
vn 0.9667 -0.2559 0.0000
vn 0.7433 -0.5939 0.3079
vn 0.5699 -0.7870 0.2361
vn 0.8990 -0.4379 0.0000
vn -0.2440 -0.9645 -0.1011
vn 0.8306 -0.4379 0.3440
vn -0.0890 -0.9954 -0.0369
vn 0.8758 -0.3183 0.3628
vn 0.8931 -0.2559 0.3699
vn 0.5689 -0.5939 0.5689
vn 0.4362 -0.7870 0.4362
vn 0.3079 -0.5939 0.7433
vn 0.2361 -0.7870 0.5699
vn 0.6703 -0.3183 0.6703
vn 0.6357 -0.4379 0.6357
vn -0.1868 -0.9645 -0.1868
vn -0.0681 -0.9954 -0.0681
vn 0.6836 -0.2559 0.6836
vn 0.3699 -0.2559 0.8931
vn 0.3628 -0.3183 0.8758
vn 0.3440 -0.4379 0.8306
vn 0.1760 -0.4311 0.8850
vn 0.1580 -0.5865 0.7944
vn 0.1888 -0.2513 0.9493
vn 0.1853 -0.3128 0.9316
vn 0.0562 -0.9577 -0.2823
vn 0.1082 -0.9592 -0.2613
vn 0.2000 -0.9592 -0.2000
vn 0.2613 -0.9592 -0.1082
vn 0.2828 -0.9592 0.0000
vn 0.2613 -0.9592 0.1082
vn 0.2000 -0.9592 0.2000
vn 0.1082 -0.9592 0.2613
vn 0.0562 -0.9577 0.2823
vn 0.1218 -0.7812 0.6123
g Manzana-1_2_Sphere.004_Manzana-1_2_Sphere.004_Manzana-Mat
usemtl Manzana-Mat
s off
f 65/1/1 13/2/1 17/3/1 6/4/1 5/5/1 55/6/1 10/7/1 9/8/1 19/9/1 74/10/1
f 74/10/1 19/9/1 4/11/1 3/12/1 63/13/1 64/14/1 53/15/1 52/16/1 54/17/1 73/18/1
f 68/19/2 67/20/2 66/21/2 65/22/2 74/23/2 73/24/2 72/25/2 71/26/2 70/27/2 69/28/2
s 1
f 1/29/3 2/30/4 3/31/5 4/32/6
f 5/33/7 6/34/8 7/35/9 8/36/10
f 9/37/11 10/38/12 11/39/13 12/40/14
f 66/41/15 14/42/16 13/43/17 65/44/18
f 8/36/10 7/35/9 15/45/19 16/46/20
f 17/47/21 13/43/17 14/42/16 18/48/22
f 19/49/23 9/37/11 12/40/14
f 6/34/8 17/47/21 18/48/22 7/35/9
f 7/35/9 18/48/22 20/50/24 15/45/19
f 12/40/14 11/39/13 21/51/25 22/52/26
f 67/53/27 23/54/28 14/42/16 66/41/15
f 16/46/20 15/45/19 24/55/29 25/56/30
f 18/48/22 14/42/16 23/54/28 20/50/24
f 19/49/23 12/40/14 22/52/26
f 25/56/30 24/55/29 26/57/31 27/58/32
f 20/50/24 23/54/28 28/59/33 29/60/34
f 19/49/23 22/52/26 30/61/35
f 15/45/19 20/50/24 29/60/34 24/55/29
f 22/52/26 21/51/25 31/62/36 30/61/35
f 28/59/33 23/54/28 67/53/27 68/63/37
f 30/61/35 31/62/36 32/64/38 33/65/39
f 34/66/40 28/59/33 68/63/37 69/67/41
f 27/58/32 26/57/31 35/68/42 36/69/43
f 29/60/34 28/59/33 34/66/40 37/70/44
f 19/49/23 30/61/35 33/65/39
f 24/55/29 29/60/34 37/70/44 26/57/31
f 19/49/23 33/65/39 38/71/45
f 26/57/31 37/70/44 39/72/46 35/68/42
f 33/65/39 32/64/38 40/73/47 38/71/45
f 41/74/48 34/66/40 69/67/41 70/75/49
f 36/69/43 35/68/42 42/76/50 43/77/51
f 37/70/44 34/66/40 41/74/48 39/72/46
f 43/77/51 42/76/50 44/78/52 45/79/53
f 39/72/46 41/74/48 46/80/54 47/81/55
f 19/49/23 38/71/45 48/82/56
f 35/68/42 39/72/46 47/81/55 42/76/50
f 38/71/45 40/73/47 49/83/57 48/82/56
f 46/80/54 41/74/48 70/75/49 71/84/58
f 48/82/56 49/83/57 2/30/4 1/29/3
f 72/85/59 50/86/60 46/80/54 71/84/58
f 47/81/55 46/80/54 50/86/60 51/87/61
f 19/49/23 48/82/56 1/29/3
f 42/76/50 47/81/55 51/87/61 44/78/52
f 19/49/23 1/29/3 4/32/6
f 44/78/52 51/87/61 52/88/62 53/89/63
f 73/90/64 54/91/65 50/86/60 72/85/59
f 51/87/61 50/86/60 54/91/65 52/88/62
f 11/39/13 10/38/12 55/92/66 56/93/67
f 56/93/67 55/92/66 5/33/7 8/36/10
f 21/51/25 11/39/13 56/93/67 57/94/68
f 57/94/68 56/93/67 8/36/10 16/46/20
f 16/46/20 25/56/30 58/95/69 57/94/68
f 57/94/68 58/95/69 31/62/36 21/51/25
f 32/64/38 31/62/36 58/95/69 59/96/70
f 59/96/70 58/95/69 25/56/30 27/58/32
f 40/73/47 32/64/38 59/96/70 60/97/71
f 60/97/71 59/96/70 27/58/32 36/69/43
f 36/69/43 43/77/51 61/98/72 60/97/71
f 60/97/71 61/98/72 49/83/57 40/73/47
f 2/30/4 49/83/57 61/98/72 62/99/73
f 62/99/73 61/98/72 43/77/51 45/79/53
f 3/31/5 2/30/4 62/99/73 63/100/74
f 63/100/74 62/99/73 45/79/53 64/101/75
f 45/79/53 44/78/52 53/89/63 64/101/75
