# Blender v2.92.0 OBJ File: 'cebolla.blend'
# www.blender.org
mtllib Manzana-1_4.mtl
o Manzana-1_4_Sphere.007
v -0.444785 1.212288 -0.000000
v -1.682133 1.262876 -0.000001
v -1.832514 0.730270 -0.000001
v -1.802214 0.140943 -0.000001
v -1.659963 -0.396347 -0.000001
v -1.471398 -0.849513 -0.000001
v -1.201392 -1.322130 -0.000000
v -0.326732 -1.546002 -0.000000
v -0.410928 1.212287 -0.170212
v -1.554088 1.262876 -0.643725
v -1.693022 0.730270 -0.701274
v -1.665028 0.140943 -0.689678
v -1.533606 -0.396347 -0.635241
v -1.359395 -0.849513 -0.563081
v -1.109941 -1.322130 -0.459753
v -0.301861 -1.546002 -0.125035
v -0.314510 1.212288 -0.314511
v -1.189447 1.262876 -1.189448
v -1.295782 0.730271 -1.295784
v -1.274357 0.140943 -1.274358
v -1.173771 -0.396347 -1.173772
v -1.040435 -0.849513 -1.040437
v -0.849512 -1.322130 -0.849513
v -0.231034 -1.546002 -0.231035
v -0.170211 1.212288 -0.410928
v -0.643724 1.262876 -1.554089
v -0.701272 0.730270 -1.693023
v -0.689676 0.140943 -1.665029
v -0.635239 -0.396347 -1.533607
v -0.563079 -0.849513 -1.359396
v -0.459752 -1.322130 -1.109941
v -0.125035 -1.546002 -0.301862
v -1.024907 -1.503655 -0.000000
v -0.605585 -1.614038 -0.000000
v -0.829440 -1.610712 -0.000000
v -0.946891 -1.503655 -0.392216
v -0.559488 -1.614038 -0.231748
v -0.766302 -1.610712 -0.317413
v -0.724719 -1.503655 -0.724720
v -0.428213 -1.614038 -0.428214
v -0.586502 -1.610712 -0.586503
v -0.392215 -1.503655 -0.946891
v -0.231747 -1.614038 -0.559488
v -0.317412 -1.610712 -0.766303
v -0.791958 1.478096 -0.000000
v -1.039550 1.564237 -0.000000
v -1.203050 1.567277 -0.000000
v -1.443456 1.477965 -0.000000
v -0.731673 1.478096 -0.303070
v -0.960418 1.564237 -0.397819
v -1.111473 1.567277 -0.460388
v -1.333579 1.477965 -0.552387
v -0.559998 1.478096 -0.559999
v -0.735072 1.564237 -0.735073
v -0.850684 1.567276 -0.850685
v -1.020677 1.477965 -1.020678
v -0.303069 1.478096 -0.731674
v -0.397818 1.564237 -0.960419
v -0.460387 1.567277 -1.111473
v -0.552386 1.477965 -1.333580
v 0.000001 1.477964 -1.443456
v 0.000001 1.567276 -1.203050
v 0.000001 1.564237 -1.039550
v 0.000001 -1.610712 -0.829440
v 0.000001 -1.503655 -1.024908
v 0.000001 -1.322130 -1.201392
v 0.000001 -0.396348 -1.659963
v 0.000001 0.140943 -1.802214
v 0.000001 0.730270 -1.832514
v 0.000001 1.262876 -1.682133
v 0.000001 1.212287 -0.444785
v 0.000001 -0.849513 -1.471399
v -0.000000 1.031884 -0.000001
v 0.000000 -1.546002 -0.326733
v 0.000000 -1.443875 -0.000000
v 0.000001 -1.614038 -0.605586
v 0.000001 1.478096 -0.791958
vt 0.320601 0.630900
vt 0.251167 0.628403
vt 0.250297 0.602133
vt 0.311618 0.584894
vt 0.582345 0.157330
vt 0.599652 0.193660
vt 0.533620 0.210679
vt 0.527687 0.177831
vt 0.502973 0.066424
vt 0.539263 0.097676
vt 0.507991 0.118373
vt 0.487473 0.079807
vt 0.620229 0.359711
vt 0.599317 0.448715
vt 0.505446 0.409212
vt 0.527149 0.343372
vt 0.241662 0.579403
vt 0.291054 0.547442
vt 0.476495 0.212193
vt 0.477935 0.182952
vt 0.179673 0.609886
vt 0.620229 0.279533
vt 0.536010 0.281163
vt 0.551294 0.534535
vt 0.481004 0.597101
vt 0.424938 0.519941
vt 0.469769 0.471211
vt 0.457314 0.034265
vt 0.388830 0.626474
vt 0.362904 0.629604
vt 0.345724 0.571177
vt 0.365390 0.561237
vt 0.430678 0.618594
vt 0.393446 0.544234
vt 0.317086 0.527395
vt 0.331317 0.514709
vt 0.467873 0.272050
vt 0.405336 0.427701
vt 0.433515 0.376638
vt 0.351371 0.495336
vt 0.373207 0.470915
vt 0.475665 0.126942
vt 0.469228 0.086426
vt 0.454434 0.323208
vt 0.227248 0.561433
vt 0.263710 0.519157
vt 0.426273 0.203315
vt 0.433172 0.177104
vt 0.381036 0.186249
vt 0.392727 0.162428
vt 0.393122 0.301120
vt 0.409771 0.256220
vt 0.323807 0.435763
vt 0.348635 0.394575
vt 0.450574 0.086623
vt 0.282853 0.495301
vt 0.293088 0.481133
vt 0.372511 0.348323
vt 0.307759 0.460439
vt 0.444546 0.125735
vt 0.208672 0.548929
vt 0.231797 0.499351
vt 0.262294 0.434874
vt 0.274266 0.409113
vt 0.415928 0.116223
vt 0.433181 0.080973
vt 0.316026 0.321996
vt 0.337374 0.276923
vt 0.357379 0.234908
vt 0.294400 0.367351
vt 0.244783 0.472520
vt 0.251765 0.457069
vt 0.563400 0.126589
vt 0.519479 0.148561
vt 0.477599 0.155994
vt 0.438880 0.152606
vt 0.403674 0.140315
vt 0.640543 0.218757
vt 0.936087 0.218757
vt 0.957623 0.271853
vt 0.989354 0.313297
vt 0.999637 0.342854
vt 1.000000 0.362371
vt 0.989338 0.391070
vt 0.963662 0.419562
vt 0.900082 0.437514
vt 0.829731 0.433897
vt 0.765592 0.416916
vt 0.711495 0.394406
vt 0.655076 0.362174
vt 0.633407 0.341106
vt 0.620627 0.317772
vt 0.620229 0.291049
vt 0.628351 0.257761
vt 0.957623 0.271853
vt 0.989354 0.313297
vt 0.999637 0.342854
vt 1.000000 0.362371
vt 0.989338 0.391070
vt 0.963662 0.419562
vt 0.900082 0.437514
vt 0.829731 0.433897
vt 0.765592 0.416916
vt 0.711495 0.394406
vt 0.655076 0.362174
vt 0.633407 0.341106
vt 0.620627 0.317772
vt 0.620229 0.291049
vt 0.628351 0.257761
vn 0.3248 0.6294 0.7059
vn 0.3532 0.5977 0.7197
vn 0.4700 0.8609 0.1946
vn 0.4237 0.8886 0.1755
vn -0.4794 -0.6116 0.6294
vn -0.6311 -0.4659 0.6202
vn -0.7432 -0.5939 -0.3079
vn -0.5699 -0.7870 -0.2361
vn 0.1837 -0.6708 0.7185
vn 0.0700 -0.7236 0.6866
vn 0.0890 -0.9953 0.0368
vn 0.2440 -0.9645 0.1010
vn -0.7420 -0.2491 0.6224
vn -0.7821 -0.1207 0.6113
vn -0.9131 -0.1525 -0.3782
vn -0.8758 -0.3182 -0.3628
vn 0.3597 0.8609 0.3597
vn 0.3243 0.8886 0.3243
vn -0.5689 -0.5939 -0.5689
vn -0.4362 -0.7870 -0.4362
vn -0.5134 0.4312 0.7419
vn -0.7001 -0.3410 0.6272
vn -0.8306 -0.4379 -0.3440
vn -0.7965 0.0877 0.5982
vn -0.6960 0.4160 0.5852
vn -0.7930 0.5131 -0.3284
vn -0.9183 0.1095 -0.3804
vn -0.5208 -0.4699 0.7127
vn -0.1440 0.7432 0.6534
vn 0.1141 0.7199 0.6847
vn 0.1447 0.9876 0.0599
vn -0.1757 0.9817 -0.0728
vn -0.4165 0.6580 0.6273
vn -0.4941 0.8450 -0.2046
vn 0.1107 0.9876 0.1107
vn -0.1345 0.9817 -0.1345
vn -0.6357 -0.4379 -0.6357
vn -0.7028 0.1095 -0.7028
vn -0.6988 -0.1525 -0.6988
vn -0.3782 0.8450 -0.3782
vn -0.6069 0.5131 -0.6069
vn 0.0681 -0.9953 0.0681
vn 0.1867 -0.9645 0.1867
vn -0.6703 -0.3182 -0.6703
vn 0.1946 0.8609 0.4700
vn 0.1755 0.8886 0.4237
vn -0.3079 -0.5939 -0.7432
vn -0.2361 -0.7870 -0.5699
vn -0.7432 -0.3974 -0.5383
vn -0.7259 -0.5413 -0.4243
vn -0.3628 -0.3182 -0.8758
vn -0.3440 -0.4379 -0.8306
vn -0.3284 0.5131 -0.7930
vn -0.3804 0.1095 -0.9183
vn 0.1010 -0.9645 0.2440
vn 0.0599 0.9876 0.1447
vn -0.0728 0.9817 -0.1757
vn -0.3782 -0.1525 -0.9131
vn -0.2046 0.8450 -0.4941
vn 0.0368 -0.9953 0.0890
vn -0.6406 0.6611 0.3906
vn -0.6314 0.6891 0.3556
vn -0.7135 0.5920 -0.3747
vn -0.7284 0.3515 -0.5880
vn -0.6714 -0.7376 0.0714
vn -0.6802 -0.7070 0.1936
vn -0.7590 -0.0993 -0.6435
vn -0.7608 -0.2065 -0.6152
vn -0.7582 -0.2855 -0.5861
vn -0.7523 0.0721 -0.6548
vn -0.6594 0.7425 0.1177
vn -0.6845 0.7157 -0.1386
vn -0.2183 -0.7405 0.6356
vn -0.2612 -0.9592 -0.1082
vn -0.2000 -0.9592 -0.2000
vn -0.1082 -0.9592 -0.2612
vn -0.6832 -0.7003 -0.2065
usemtl Manzana-Mat
s 1
f 45/1/1 1/2/2 9/3/3 49/4/4
f 33/5/5 7/6/6 15/7/7 36/8/8
f 8/9/9 34/10/10 37/11/11 16/12/12
f 5/13/13 4/14/14 12/15/15 13/16/16
f 49/4/4 9/3/3 17/17/17 53/18/18
f 36/8/8 15/7/7 23/19/19 39/20/20
f 1/2/2 73/21/21 9/3/3
f 6/22/22 5/13/13 13/16/16 14/23/23
f 3/24/24 2/25/25 10/26/26 11/27/27
f 75/28/28 8/9/9 16/12/12
f 47/29/29 46/30/30 50/31/31 51/32/32
f 7/6/6 6/22/22 14/23/23 15/7/7
f 4/14/14 3/24/24 11/27/27 12/15/15
f 2/25/25 48/33/33 52/34/34 10/26/26
f 51/32/32 50/31/31 54/35/35 55/36/36
f 15/7/7 14/23/23 22/37/37 23/19/19
f 12/15/15 11/27/27 19/38/38 20/39/39
f 10/26/26 52/34/34 56/40/40 18/41/41
f 16/12/12 37/11/11 40/42/42 24/43/43
f 13/16/16 12/15/15 20/39/39 21/44/44
f 53/18/18 17/17/17 25/45/45 57/46/46
f 39/20/20 23/19/19 31/47/47 42/48/48
f 9/3/3 73/21/21 17/17/17
f 14/23/23 13/16/16 21/44/44 22/37/37
f 11/27/27 10/26/26 18/41/41 19/38/38
f 75/28/28 16/12/12 24/43/43
f 42/48/48 31/47/47 66/49/49 65/50/50
f 17/17/17 73/21/21 25/45/45
f 22/37/37 21/44/44 29/51/51 30/52/52
f 19/38/38 18/41/41 26/53/53 27/54/54
f 75/28/28 24/43/43 32/55/55
f 55/36/36 54/35/35 58/56/56 59/57/57
f 23/19/19 22/37/37 30/52/52 31/47/47
f 20/39/39 19/38/38 27/54/54 28/58/58
f 18/41/41 56/40/40 60/59/59 26/53/53
f 24/43/43 40/42/42 43/60/60 32/55/55
f 21/44/44 20/39/39 28/58/58 29/51/51
f 57/46/46 25/45/45 71/61/61 77/62/62
f 26/53/53 60/59/59 61/63/63 70/64/64
f 32/55/55 43/60/60 76/65/65 74/66/66
f 29/51/51 28/58/58 68/67/67 67/68/68
f 25/45/45 73/21/21 71/61/61
f 30/52/52 29/51/51 67/68/68 72/69/69
f 27/54/54 26/53/53 70/64/64 69/70/70
f 75/28/28 32/55/55 74/66/66
f 59/57/57 58/56/56 63/71/71 62/72/72
f 31/47/47 30/52/52 72/69/69 66/49/49
f 28/58/58 27/54/54 69/70/70 68/67/67
f 37/11/11 34/10/10 35/73/73 38/74/74
f 38/74/74 35/73/73 33/5/5 36/8/8
f 40/42/42 37/11/11 38/74/74 41/75/75
f 41/75/75 38/74/74 36/8/8 39/20/20
f 39/20/20 42/48/48 44/76/76 41/75/75
f 41/75/75 44/76/76 43/60/60 40/42/42
f 76/65/65 43/60/60 44/76/76 64/77/77
f 64/77/77 44/76/76 42/48/48 65/50/50
f 47/29/29 51/32/32 52/34/34 48/33/33
f 50/31/31 46/30/30 45/1/1 49/4/4
f 54/35/35 50/31/31 49/4/4 53/18/18
f 56/40/40 52/34/34 51/32/32 55/36/36
f 58/56/56 54/35/35 53/18/18 57/46/46
f 60/59/59 56/40/40 55/36/36 59/57/57
f 61/63/63 60/59/59 59/57/57 62/72/72
f 57/46/46 77/62/62 63/71/71 58/56/56
f 75/78/28 73/79/21 71/80/61 77/81/62 63/82/71 62/83/72 61/84/63 70/85/64 69/86/70 68/87/67 67/88/68 72/89/69 66/90/49 65/91/50 64/92/77 76/93/65 74/94/66
f 75/78/28 73/79/21 1/95/2 45/96/1 46/97/30 47/98/29 48/99/33 2/100/25 3/101/24 4/102/14 5/103/13 6/104/22 7/105/6 33/106/5 35/107/73 34/108/10 8/109/9
