# Blender v2.93.1 OBJ File: ''
# www.blender.org
mtllib manzana-2-4.mtl
o Manzana-1_2_Sphere.004
v 0.460387 1.567277 1.111474
v 0.397818 1.564238 0.960419
v -0.000000 1.564238 1.039550
v -0.000000 1.567277 1.203051
v -0.000000 1.478096 -0.791958
v -0.000000 1.212288 -0.444785
v 0.170212 1.212287 -0.410928
v 0.303070 1.478096 -0.731673
v 0.000001 0.140943 -1.802214
v 0.689678 0.140943 -1.665028
v 0.314511 1.212288 -0.314510
v 0.559999 1.478096 -0.559998
v 0.000001 1.031884 -0.000000
v 0.000001 0.730270 -1.832514
v 0.000001 1.262876 -1.682133
v 0.643725 1.262876 -1.554088
v 0.701274 0.730270 -1.693022
v -0.000000 1.567277 -1.203050
v -0.000000 1.564237 -1.039550
v 0.397819 1.564237 -0.960418
v 0.460388 1.567277 -1.111473
v -0.000000 1.477965 -1.443456
v 0.552387 1.477965 -1.333579
v 0.735073 1.564237 -0.735072
v 0.850685 1.567276 -0.850684
v 1.295784 0.730271 -1.295782
v 1.274358 0.140943 -1.274357
v 1.020678 1.477965 -1.020677
v 1.189448 1.262876 -1.189447
v 0.410928 1.212288 -0.170211
v 0.731674 1.478096 -0.303069
v 1.554089 1.262876 -0.643724
v 1.693023 0.730270 -0.701272
v 0.960419 1.564237 -0.397818
v 1.111473 1.567277 -0.460387
v 1.665029 0.140943 -0.689676
v 1.333580 1.477965 -0.552386
v 0.444785 1.212288 0.000001
v 0.791958 1.478096 0.000001
v 1.443456 1.477965 0.000001
v 1.682133 1.262876 0.000001
v 1.802214 0.140943 0.000001
v 0.410928 1.212288 0.170213
v 0.731674 1.478096 0.303070
v 1.832514 0.730271 0.000001
v 1.039550 1.564237 0.000001
v 1.203050 1.567277 0.000001
v 0.960419 1.564237 0.397819
v 1.111473 1.567277 0.460388
v 1.693022 0.730270 0.701274
v 1.665028 0.140943 0.689679
v 1.333579 1.477965 0.552388
v 1.554088 1.262876 0.643726
v 0.314511 1.212288 0.314511
v 0.559999 1.478096 0.560000
v 0.170212 1.212288 0.410929
v 0.303069 1.478096 0.731674
v 1.189447 1.262876 1.189449
v 1.295782 0.730270 1.295784
v 0.735072 1.564237 0.735074
v 0.850685 1.567277 0.850686
v 1.274357 0.140943 1.274359
v 1.020677 1.477964 1.020678
v 0.552386 1.477965 1.333580
v 0.643724 1.262876 1.554089
v 0.689677 0.140943 1.665029
v -0.000000 1.212288 0.444786
v -0.000000 1.478096 0.791958
v 0.701272 0.730270 1.693023
v -0.000000 1.262876 1.682134
v -0.000000 0.730270 1.832515
v -0.000000 0.140943 1.802215
v -0.000000 1.477965 1.443457
v 0.000001 0.000000 -1.764898
v 0.675398 0.000000 -1.630553
v 1.247972 0.000000 -1.247971
v 1.630554 0.000000 -0.675396
v 1.764898 0.000000 0.000001
v 1.630553 0.000000 0.675399
v 1.247971 0.000000 1.247973
v 0.675397 0.000000 1.630554
v 0.000000 0.000000 1.764899
v 0.000001 0.000000 -0.000000
vt 0.812906 0.218757
vt 0.936087 0.218757
vt 0.957623 0.271853
vt 0.989354 0.313297
vt 0.999637 0.342854
vt 1.000000 0.362371
vt 0.989338 0.391070
vt 0.963662 0.419562
vt 0.900082 0.437514
vt 0.829731 0.433897
vt 0.812906 0.429442
vt 0.989338 0.046444
vt 1.000000 0.075143
vt 0.999637 0.094660
vt 0.989354 0.124217
vt 0.957623 0.165661
vt 0.812906 0.008071
vt 0.829731 0.003617
vt 0.900082 0.000000
vt 0.963662 0.017952
vt 0.125000 0.551230
vt 0.125000 0.568539
vt 0.125000 0.594443
vt 0.125000 0.625000
vt 0.125000 0.655557
vt 0.125000 0.681461
vt 0.125000 0.698770
vt 0.125000 0.704848
vt 0.125000 0.625000
vt 0.125000 0.545152
vt 0.100701 0.438015
vt 0.105757 0.458694
vt 0.051642 0.481368
vt 0.038193 0.460583
vt 0.320601 0.630900
vt 0.251167 0.628403
vt 0.250297 0.602133
vt 0.311618 0.584894
vt 0.599317 0.448715
vt 0.505446 0.409212
vt 0.511139 0.391941
vt 0.604803 0.425367
vt 0.241662 0.579403
vt 0.291054 0.547442
vt 0.179673 0.609886
vt 0.551294 0.534535
vt 0.481004 0.597101
vt 0.424938 0.519941
vt 0.469769 0.471211
vt 0.388830 0.626474
vt 0.362904 0.629604
vt 0.345724 0.571177
vt 0.365390 0.561237
vt 0.430678 0.618594
vt 0.393446 0.544234
vt 0.317086 0.527395
vt 0.331317 0.514709
vt 0.405336 0.427701
vt 0.433515 0.376638
vt 0.351371 0.495336
vt 0.373207 0.470915
vt 0.439003 0.362622
vt 0.227248 0.561433
vt 0.263710 0.519157
vt 0.323807 0.435763
vt 0.348635 0.394575
vt 0.282853 0.495301
vt 0.293088 0.481133
vt 0.372511 0.348323
vt 0.307759 0.460439
vt 0.377918 0.335941
vt 0.208672 0.548929
vt 0.231797 0.499351
vt 0.262294 0.434874
vt 0.274266 0.409113
vt 0.316026 0.321996
vt 0.321626 0.310172
vt 0.187273 0.542460
vt 0.196202 0.487791
vt 0.294400 0.367351
vt 0.244783 0.472520
vt 0.251765 0.457069
vt 0.202951 0.458105
vt 0.206800 0.441160
vt 0.238500 0.343697
vt 0.259327 0.295742
vt 0.213460 0.416789
vt 0.221898 0.388735
vt 0.265502 0.283576
vt 0.164366 0.542681
vt 0.157377 0.485204
vt 0.141593 0.550347
vt 0.116183 0.493498
vt 0.163320 0.374368
vt 0.176385 0.322459
vt 0.156767 0.452655
vt 0.156923 0.433873
vt 0.197652 0.267578
vt 0.158957 0.406361
vt 0.204985 0.254068
vt 0.095681 0.406355
vt 0.093599 0.368311
vt 0.124505 0.234692
vt 0.134064 0.218435
vt 0.121210 0.566095
vt 0.075175 0.515535
vt 0.101295 0.303494
vt 0.004324 0.378130
vt 0.000000 0.287317
vt 0.028760 0.190981
vt 0.042926 0.169891
vt 0.020775 0.425015
vn -1.0000 -0.0000 -0.0000
vn 0.0000 -1.0000 0.0000
vn 0.0728 0.9818 0.1757
vn -0.0599 0.9877 -0.1447
vn -0.0311 0.9872 -0.1565
vn 0.0378 0.9810 0.1900
vn -0.0908 0.8850 0.4567
vn -0.1007 0.8566 0.5061
vn -0.1947 0.8609 0.4700
vn -0.1755 0.8886 0.4237
vn 0.1929 -0.1497 -0.9697
vn 0.3782 -0.1525 -0.9131
vn 0.3699 -0.2559 -0.8931
vn 0.1888 -0.2513 -0.9493
vn -0.3597 0.8609 0.3597
vn -0.3243 0.8886 0.3243
vn -0.2561 0.9666 0.0000
vn 0.1940 0.1074 -0.9751
vn 0.1683 0.5058 -0.8461
vn 0.3285 0.5131 -0.7930
vn 0.3804 0.1095 -0.9183
vn 0.0378 0.9810 -0.1900
vn -0.0311 0.9872 0.1565
vn -0.0599 0.9877 0.1447
vn 0.0728 0.9818 -0.1757
vn 0.1058 0.8402 -0.5318
vn 0.2047 0.8450 -0.4941
vn -0.1107 0.9877 0.1107
vn 0.1345 0.9818 -0.1345
vn 0.7029 0.1095 -0.7029
vn 0.6988 -0.1525 -0.6988
vn 0.3782 0.8450 -0.3782
vn 0.6069 0.5131 -0.6069
vn 0.6836 -0.2559 -0.6836
vn -0.4700 0.8609 0.1947
vn -0.4237 0.8886 0.1755
vn 0.7930 0.5131 -0.3285
vn 0.9183 0.1095 -0.3804
vn -0.1447 0.9877 0.0599
vn 0.1757 0.9818 -0.0728
vn 0.9131 -0.1525 -0.3782
vn 0.4941 0.8450 -0.2047
vn 0.8931 -0.2559 -0.3699
vn -0.5087 0.8609 0.0000
vn -0.4586 0.8886 -0.0000
vn 0.5348 0.8450 0.0000
vn 0.8583 0.5131 0.0000
vn 0.9883 -0.1525 0.0000
vn 0.9667 -0.2559 0.0000
vn -0.4700 0.8609 -0.1947
vn -0.4237 0.8886 -0.1755
vn 0.9940 0.1095 0.0000
vn -0.1566 0.9877 0.0000
vn 0.1902 0.9818 0.0000
vn -0.1447 0.9877 -0.0599
vn 0.1757 0.9818 0.0728
vn 0.9183 0.1095 0.3804
vn 0.9131 -0.1525 0.3782
vn 0.4941 0.8450 0.2047
vn 0.7930 0.5131 0.3285
vn 0.8931 -0.2559 0.3699
vn -0.3597 0.8609 -0.3597
vn -0.3243 0.8886 -0.3243
vn -0.1947 0.8609 -0.4700
vn -0.1755 0.8886 -0.4237
vn 0.6069 0.5131 0.6069
vn 0.7029 0.1095 0.7029
vn -0.1107 0.9877 -0.1107
vn 0.1345 0.9818 0.1345
vn 0.6988 -0.1525 0.6988
vn 0.3782 0.8450 0.3782
vn 0.6836 -0.2559 0.6836
vn 0.2047 0.8450 0.4941
vn 0.3285 0.5131 0.7930
vn 0.3782 -0.1525 0.9131
vn 0.3699 -0.2559 0.8931
vn -0.1007 0.8566 -0.5061
vn -0.0908 0.8850 -0.4567
vn 0.3804 0.1095 0.9183
vn 0.1683 0.5058 0.8461
vn 0.1940 0.1074 0.9751
vn 0.1929 -0.1497 0.9697
vn 0.1888 -0.2513 0.9493
vn 0.1058 0.8402 0.5318
g Manzana-1_2_Sphere.004_Manzana-1_2_Sphere.004_Manzana-Mat
usemtl Manzana-Mat
s off
f 83/1/1 13/2/1 6/3/1 5/4/1 19/5/1 18/6/1 22/7/1 15/8/1 14/9/1 9/10/1 74/11/1
f 73/12/1 4/13/1 3/14/1 68/15/1 67/16/1 13/2/1 83/1/1 82/17/1 72/18/1 71/19/1 70/20/1
f 75/21/2 76/22/2 77/23/2 78/24/2 79/25/2 80/26/2 81/27/2 82/28/2 83/29/2 74/30/2
s 1
f 1/31/3 2/32/4 3/33/5 4/34/6
f 5/35/7 6/36/8 7/37/9 8/38/10
f 9/39/11 10/40/12 75/41/13 74/42/14
f 8/38/10 7/37/9 11/43/15 12/44/16
f 6/36/8 13/45/17 7/37/9
f 14/46/18 15/47/19 16/48/20 17/49/21
f 18/50/22 19/51/23 20/52/24 21/53/25
f 9/39/11 14/46/18 17/49/21 10/40/12
f 15/47/19 22/54/26 23/55/27 16/48/20
f 21/53/25 20/52/24 24/56/28 25/57/29
f 10/40/12 17/49/21 26/58/30 27/59/31
f 16/48/20 23/55/27 28/60/32 29/61/33
f 10/40/12 27/59/31 76/62/34 75/41/13
f 12/44/16 11/43/15 30/63/35 31/64/36
f 7/37/9 13/45/17 11/43/15
f 17/49/21 16/48/20 29/61/33 26/58/30
f 11/43/15 13/45/17 30/63/35
f 26/58/30 29/61/33 32/65/37 33/66/38
f 25/57/29 24/56/28 34/67/39 35/68/40
f 27/59/31 26/58/30 33/66/38 36/69/41
f 29/61/33 28/60/32 37/70/42 32/65/37
f 27/59/31 36/69/41 77/71/43 76/62/34
f 31/64/36 30/63/35 38/72/44 39/73/45
f 32/65/37 37/70/42 40/74/46 41/75/47
f 36/69/41 42/76/48 78/77/49 77/71/43
f 39/73/45 38/72/44 43/78/50 44/79/51
f 30/63/35 13/45/17 38/72/44
f 33/66/38 32/65/37 41/75/47 45/80/52
f 35/68/40 34/67/39 46/81/53 47/82/54
f 36/69/41 33/66/38 45/80/52 42/76/48
f 47/82/54 46/81/53 48/83/55 49/84/56
f 42/76/48 45/80/52 50/85/57 51/86/58
f 41/75/47 40/74/46 52/87/59 53/88/60
f 42/76/48 51/86/58 79/89/61 78/77/49
f 44/79/51 43/78/50 54/90/62 55/91/63
f 38/72/44 13/45/17 43/78/50
f 45/80/52 41/75/47 53/88/60 50/85/57
f 55/91/63 54/90/62 56/92/64 57/93/65
f 43/78/50 13/45/17 54/90/62
f 50/85/57 53/88/60 58/94/66 59/95/67
f 49/84/56 48/83/55 60/96/68 61/97/69
f 51/86/58 50/85/57 59/95/67 62/98/70
f 53/88/60 52/87/59 63/99/71 58/94/66
f 79/89/61 51/86/58 62/98/70 80/100/72
f 58/94/66 63/99/71 64/101/73 65/102/74
f 62/98/70 66/103/75 81/104/76 80/100/72
f 57/93/65 56/92/64 67/105/77 68/106/78
f 54/90/62 13/45/17 56/92/64
f 59/95/67 58/94/66 65/102/74 69/107/79
f 61/97/69 60/96/68 2/32/4 1/31/3
f 62/98/70 59/95/67 69/107/79 66/103/75
f 69/107/79 65/102/74 70/108/80 71/109/81
f 66/103/75 69/107/79 71/109/81 72/110/82
f 66/103/75 72/110/82 82/111/83 81/104/76
f 56/92/64 13/45/17 67/105/77
f 18/50/22 21/53/25 23/55/27 22/54/26
f 20/52/24 19/51/23 5/35/7 8/38/10
f 24/56/28 20/52/24 8/38/10 12/44/16
f 28/60/32 23/55/27 21/53/25 25/57/29
f 34/67/39 24/56/28 12/44/16 31/64/36
f 37/70/42 28/60/32 25/57/29 35/68/40
f 40/74/46 37/70/42 35/68/40 47/82/54
f 31/64/36 39/73/45 46/81/53 34/67/39
f 48/83/55 46/81/53 39/73/45 44/79/51
f 52/87/59 40/74/46 47/82/54 49/84/56
f 49/84/56 61/97/69 63/99/71 52/87/59
f 60/96/68 48/83/55 44/79/51 55/91/63
f 64/101/73 63/99/71 61/97/69 1/31/3
f 55/91/63 57/93/65 2/32/4 60/96/68
f 3/33/5 2/32/4 57/93/65 68/106/78
f 73/112/84 64/101/73 1/31/3 4/34/6
f 65/102/74 64/101/73 73/112/84 70/108/80
